<svg width="291" height="479" viewBox="0 0 291 479" fill="none" xmlns="http://www.w3.org/2000/svg">
<ellipse cx="145.5" cy="448.5" rx="145.5" ry="30.5" fill="#D9D9D9" fill-opacity="0.1933"/>
<path d="M0 30C-6.97319e-06 70 291 70 291 30C291 -9.99998 291 449 291 449C284 412 23 403 0 449C0 449 6.97319e-06 -9.99996 0 30Z" fill="#D9D9D9" fill-opacity="0.1933"/>
<ellipse cx="145.5" cy="30.5" rx="145.5" ry="30.5" fill="#D9D9D9" fill-opacity="0.1933"/>
<ellipse cx="145.5" cy="443.137" rx="140.5" ry="29.8633" fill="url(#paint0_linear_28_2)"/>
<path d="M5 33.3738C4.99999 72.5387 286 72.5387 286 33.3738C286 -5.79114 286 443.627 286 443.627C279.24 407.399 27.2096 398.587 5 443.627C5 443.627 5.00001 -5.79111 5 33.3738Z" fill="url(#paint1_linear_28_2)"/>
<ellipse cx="145.5" cy="33.8633" rx="140.5" ry="29.8633" fill="url(#paint2_linear_28_2)"/>
<defs>
<linearGradient id="paint0_linear_28_2" x1="145.5" y1="413.273" x2="145.5" y2="473" gradientUnits="userSpaceOnUse">
<stop stop-color="#BF9B37"/>
<stop offset="1" stop-color="#7A5533"/>
</linearGradient>
<linearGradient id="paint1_linear_28_2" x1="145.5" y1="30.955" x2="145.5" y2="443.627" gradientUnits="userSpaceOnUse">
<stop stop-color="#BF9B37"/>
<stop offset="1" stop-color="#7A5533"/>
</linearGradient>
<linearGradient id="paint2_linear_28_2" x1="145.5" y1="4" x2="145.5" y2="63.7265" gradientUnits="userSpaceOnUse">
<stop stop-color="#BF9B37"/>
<stop offset="1" stop-color="#7A5533"/>
</linearGradient>
</defs>
</svg>
