<svg width="164" height="164" viewBox="0 0 164 164" fill="none" xmlns="http://www.w3.org/2000/svg">
<path d="M157.959 110.658C157.792 111.382 157.698 112.133 157.445 112.825C155.756 117.446 153.622 121.827 150.446 125.643C150.163 125.982 150.055 126.471 149.884 126.897C149.786 127.138 149.799 127.535 149.636 127.622C147.413 128.797 147.231 131.75 144.938 132.908C143.797 133.484 142.967 134.459 143.121 135.975C143.157 136.337 142.747 136.785 142.468 137.134C139.766 140.5 136.309 143.016 132.899 145.583C125.76 150.958 118.31 155.782 109.635 158.326C107.069 159.079 104.414 159.525 101.804 160.131C101.154 160.282 100.521 160.508 99.6084 160.781C100.354 161.2 100.822 161.464 101.649 161.929C99.0495 162.435 96.8294 162.973 94.5772 163.238C93.9493 163.312 93.2265 162.579 92.1845 162.023C88.756 162.38 84.7961 163.021 80.822 163.125C78.1912 163.194 75.4961 162.677 72.9163 162.061C71.5353 161.731 70.4526 161.732 69.1844 162.313C68.2835 162.725 67.2002 162.902 66.2006 162.894C64.9662 162.885 63.922 162.518 63.8122 160.858C63.7745 160.288 62.8642 159.707 62.2546 159.266C61.8202 158.951 60.9454 159.014 60.7456 158.648C59.9504 157.191 59.369 155.618 58.6552 154.114C58.2912 153.346 60.0976 152.804 58.9014 152.179C58.4938 151.966 57.6582 152.636 56.9962 152.826C56.4302 152.989 55.8328 153.041 55.1213 153.165C55.4477 152.352 57.3566 152.257 56.0861 150.944C55.1482 149.975 54.1416 150.118 53.2588 150.672C53.1636 151.694 53.2227 152.605 52.9494 153.401C52.7918 153.861 52.0972 154.136 51.6443 154.494C51.4553 154.056 51.2469 153.626 51.0872 153.178C51.0264 153.007 51.0773 152.796 51.0773 152.508C50.1418 152.508 49.3038 152.545 48.4709 152.496C47.8466 152.459 47.1435 152.464 46.6279 152.177C45.8223 151.728 44.8656 151.18 44.5071 150.421C44.242 149.861 44.827 148.898 45.1326 147.737C44.1979 147.808 43.2229 147.883 42.2344 147.958C42.5571 150.121 42.8303 151.952 43.1035 153.783C42.9329 153.91 42.7623 154.038 42.5917 154.166C41.0867 152.344 39.0404 151.666 36.675 151.352C37.1242 150.223 37.4441 149.42 37.764 148.616C37.6892 148.502 37.6144 148.389 37.5396 148.275C36.7429 148.784 35.9462 149.293 35.1265 149.817C32.9796 149.285 32.6689 147.327 32.0819 145.742C33.2893 144.915 34.4218 144.138 35.5825 143.343C34.8825 142.028 34.284 141.139 32.8702 142.244C32.6424 142.422 32.0819 142.192 31.6796 142.125C31.1407 142.034 30.6062 141.918 29.8062 141.762C30.1415 142.563 30.3601 143.085 30.7066 143.913C29.6304 143.507 28.8584 143.215 28.0718 142.918C26.9023 141.382 27.5399 138.612 24.7143 137.787C25.8996 136.097 26.4143 134.307 24.2557 133.336C23.3071 134.066 22.6271 135.005 22.0229 134.959C21.1121 134.889 20.1252 134.274 19.4075 133.627C18.5669 132.87 18.025 131.791 17.2626 130.933C16.9369 130.566 16.3188 130.117 15.9412 130.2C14.5846 130.495 14.2273 129.519 13.6764 128.714C7.32997 119.433 3.01352 109.298 0.874098 98.2526C0.751914 97.6218 0.262531 96.8352 1.33697 96.3758C1.54884 96.2853 1.62016 95.4966 1.51604 95.0916C-0.0901741 88.8442 -0.136689 82.4913 0.111995 76.1067C0.233957 72.9755 -0.152343 69.8262 0.728815 66.7312C1.35868 64.5189 1.68998 62.2179 2.37665 60.0261C3.44213 56.6252 4.66343 53.2713 5.90039 49.9277C6.13745 49.2869 6.64417 48.6086 7.21675 48.261C8.09995 47.7248 9.01869 47.3869 8.69976 46.0695C8.66424 45.9228 8.94198 45.6446 9.13215 45.5074C11.113 44.0775 11.674 42.0111 11.8607 39.7211C11.9212 38.9791 12.1309 38.1548 12.5423 37.5525C14.175 35.1622 15.7092 32.6556 17.6584 30.5409C21.4061 26.475 25.4229 22.6577 29.3011 18.7108C30.1785 17.8179 31.1582 17.6121 32.505 17.9585C32.7887 17.9687 32.8792 17.9377 32.9697 17.9067C32.9049 17.8365 32.8401 17.7663 32.7752 17.6961C32.7073 17.3432 32.6394 16.9903 32.5559 16.5567C34.7238 15.6246 36.841 14.5785 38.0927 12.3799C38.2556 12.0937 38.6719 11.9404 38.9877 11.7544C55.074 2.27709 72.378 -1.58564 90.9573 0.59076C106.563 2.41877 120.467 8.37334 132.739 18.1423C133.957 19.1118 134.939 20.3919 135.965 21.5847C137.991 23.9407 139.88 26.4221 142.007 28.6802C143.09 29.8288 144.575 30.5938 145.859 31.5575C146.226 31.8323 146.574 32.1592 146.847 32.5245C149.975 36.7061 152.506 41.22 154.904 45.8697C157.947 51.7698 160.122 57.9057 161.632 64.323C163.186 70.931 164.023 80.8005 163.439 85.4674C161.039 85.4912 161.039 85.4912 160.243 84.2281C160.936 83.8822 161.624 83.5386 162.389 83.1566C160.767 82.4005 159.486 81.7798 158.179 81.2168C157.959 81.122 157.447 81.1957 157.387 81.3313C157.171 81.8215 157.034 82.3655 156.98 82.9007C156.941 83.2827 157.072 83.6848 157.144 84.0749C157.336 85.1195 156.259 86.3823 157.695 87.24C157.798 87.3018 157.645 87.7933 157.575 88.3953C157.197 87.7408 156.974 87.3546 156.613 86.8518C156.356 86.7343 156.238 86.7333 156.119 86.7323C155.456 85.9826 153.107 86.2312 152.674 87.0924C152.234 87.9664 151.784 88.8356 151.243 89.8928C152.038 90.3553 153.044 90.9403 154.049 91.5252C155.453 92.2495 155.156 90.9062 155.273 90.4956C156.334 90.859 157.271 91.1689 158.2 91.5011C159.119 91.83 160.03 92.1815 161.126 92.5907C160.987 92.9972 160.791 93.455 160.676 93.9322C160.529 94.5426 159.486 95.186 160.795 95.8302C160.974 95.9187 160.558 97.2181 160.447 97.805C159.883 97.9806 159.418 98.1257 158.952 98.2708C159.246 98.721 159.45 99.3114 159.862 99.5793C160.226 99.8159 160.951 100.63 161.389 99.407C161.5 99.3876 161.49 99.3741 161.49 99.3741C161.26 100.85 161.03 102.326 160.755 104.092C159.24 103.435 158 102.897 156.604 102.291C156.183 103.218 155.625 104.446 154.928 105.981C156.593 107.588 157.019 104.302 158.494 104.514C158.433 105.325 158.37 106.167 158.302 107.071C157.352 107.345 156.405 107.618 155.207 107.963C156.241 108.553 157.504 108.853 156.885 110.305C156.875 110.33 157.45 110.604 157.859 110.721C157.966 110.681 157.959 110.658 157.959 110.658ZM69.761 48.1511C68.8083 45.6964 66.6653 44.3415 64.3987 44.7608C61.8032 45.2409 60.025 47.5301 60.2664 50.0806C60.5112 52.667 62.6749 54.5408 65.3306 54.4664C68.0364 54.3906 69.8847 52.3826 70.2819 49.4457C72.1384 49.5811 73.9936 49.7747 75.852 49.8125C76.3375 49.8223 76.8328 49.3478 77.3235 49.0957C76.8738 48.7835 76.4278 48.2102 75.9737 48.2038C73.906 48.1743 71.836 48.3042 69.761 48.1511ZM67.1237 94.7226C72.5032 89.0746 77.8887 83.4324 83.2533 77.7703C83.8364 77.1548 84.2906 76.8726 85.2652 77.1161C88.2823 77.8702 90.6381 75.3943 90.1042 72.316C90.0039 71.7381 90.2876 70.8841 90.7039 70.4658C91.8894 69.2744 93.2093 68.2104 94.5215 67.1524C101.999 61.1242 110.412 57.4542 120.128 57.3025C126.792 57.1984 132.904 58.9312 137.694 63.8091C139.324 65.4683 140.411 67.6532 141.812 69.5494C142.098 69.936 142.678 70.1052 143.122 70.3746C143.241 69.8415 143.479 69.2997 143.441 68.7781C143.408 68.3409 143.071 67.9179 142.839 67.5047C139.566 61.6608 134.593 58.009 128.16 56.3816C119.315 54.1438 110.921 55.8284 102.832 59.6163C97.867 61.9415 93.5933 65.271 89.5402 68.9192C89.0807 69.3328 88.2369 69.6924 87.6844 69.5693C84.1414 68.7799 81.7312 71.0969 82.4518 74.6443C82.5535 75.1452 82.3158 75.7926 82.0503 76.2692C81.7773 76.7592 81.2811 77.1264 80.877 77.5418C74.8158 83.773 68.9299 90.1881 62.6433 96.183C56.0848 102.437 48.4023 106.769 39.2115 108.049C28.0057 109.609 19.0004 103.716 16.3392 92.7114C15.6283 89.7718 15.5955 86.6722 15.1511 83.6607C15.07 83.1111 14.5041 82.633 14.1619 82.1219C13.8424 82.6988 13.1951 83.3136 13.2567 83.8465C13.648 87.2342 13.8845 90.6861 14.7498 93.9643C17.4771 104.297 25.6258 110.312 36.3061 110.147C42.0044 110.059 47.2829 108.349 52.3223 105.806C57.8409 103.021 62.4999 99.0797 67.1237 94.7226ZM60.2682 75.1225C58.6103 76.8534 56.9524 78.5843 55.1618 80.4538C53.4628 75.9561 50.6568 73.3468 46.1478 73.1598C42.1554 72.9941 39.063 74.7995 37.301 78.3874C35.0431 82.9849 36.3969 86.9531 40.0456 90.4005C37.4283 91.6778 34.9572 92.9699 31.7002 93.4647C32.2093 92.5583 32.4149 92.0166 32.7673 91.5989C33.7165 90.4738 34.7772 89.4399 35.6867 88.2857C35.9726 87.9229 35.9195 87.2929 36.0216 86.7853C35.5104 86.8186 34.7792 86.6467 34.5246 86.9195C33.13 88.4138 31.6692 89.901 30.5819 91.6133C29.2865 93.6534 30.3586 95.378 32.7196 94.8995C35.3596 94.3645 37.9134 93.3017 40.4218 92.2676C41.5326 91.8097 42.4536 91.5514 43.6774 91.8583C48.9411 93.1782 54.3895 89.5628 55.1097 84.2203C55.2905 82.8797 55.8898 82.1117 56.7879 81.2301C58.693 79.3599 60.5301 77.3923 62.1516 75.2779C62.6628 74.6112 62.8163 73.0373 62.3743 72.4466C61.9121 71.8287 60.4767 71.568 59.5726 71.7327C57.9396 72.0301 56.3742 72.7303 54.8036 73.3235C54.112 73.5846 53.0339 73.8047 53.5548 74.847C53.7091 75.1558 54.9068 75.136 55.5485 74.9684C56.9152 74.6115 58.2232 74.0358 59.5718 73.6009C59.9794 73.4694 60.4413 73.5064 61.1568 73.4406C60.8248 74.1216 60.6252 74.531 60.2682 75.1225ZM99.5567 102.335C100.413 103.996 101.495 105.584 102.065 107.339C102.739 109.411 101.763 110.669 99.6011 110.992C98.8882 111.098 98.1125 111.073 97.4108 110.912C95.3624 110.44 93.3417 109.849 91.3014 109.34C86.3477 108.103 81.9936 108.906 78.6575 113.112C78.1386 113.766 76.9503 114.415 77.9978 115.285C78.9917 116.111 79.5889 114.893 80.0996 114.268C82.7193 111.066 86.0373 110.081 89.9884 111.019C91.5734 111.396 93.1195 111.989 94.7214 112.229C96.6678 112.52 98.6947 112.853 100.614 112.604C103.151 112.275 104.6 110.116 104.038 107.64C103.617 105.786 102.843 103.936 101.855 102.308C100.784 100.542 99.2838 99.0348 97.9707 97.4146C97.7006 97.7791 97.9847 97.728 98.2707 97.7135C102.219 97.5142 105.681 98.889 108.572 101.418C111.418 103.908 114.072 106.635 116.652 109.405C118.852 111.765 121.496 112.886 124.636 112.921C125.12 112.926 125.609 112.396 126.096 112.114C125.626 111.767 125.169 111.143 124.683 111.119C121.831 110.984 119.578 109.862 117.658 107.718C115.484 105.289 113.18 102.957 110.766 100.766C106.197 96.6188 100.856 94.8946 94.7149 96.2638C94.0698 96.4076 93.5094 96.9319 92.9097 97.2796C93.3968 97.7506 93.8361 98.2877 94.3798 98.6803C96.0326 99.8734 97.7256 101.011 99.5567 102.335ZM149.65 83.2311C149.872 82.749 150.095 82.2668 150.317 81.7847C149.818 81.5684 149.325 81.1833 148.819 81.1654C146.797 81.0935 144.77 81.1357 142.536 81.1357C144.184 79.2536 145.812 77.4921 147.302 75.6204C147.647 75.1863 147.52 74.3761 147.61 73.739C147.046 73.9577 146.313 74.0213 145.946 74.4208C143.953 76.5869 142.026 78.8166 140.136 81.0738C139.781 81.4982 139.693 82.1466 139.481 82.6916C140.05 82.8671 140.615 83.1721 141.19 83.1938C142.947 83.2604 144.708 83.218 146.468 83.218C146.273 83.8534 145.883 84.1737 145.51 84.5131C143.331 86.4949 141.148 88.4724 138.986 90.472C138.433 90.9826 137.516 91.5664 138.361 92.3517C138.618 92.5907 139.796 92.2043 140.27 91.7853C143.384 89.035 146.421 86.1972 149.65 83.2311ZM13.7657 68.7475C15.5897 71.4014 18.3493 72.2354 20.8366 70.8846C23.2986 69.5475 24.3347 66.6279 23.2387 64.1159C22.0618 61.4184 18.944 60.1931 16.2455 61.3676C13.5229 62.5525 12.4505 65.5228 13.7657 68.7475ZM142.071 99.6704C141.363 100.9 140.747 102.197 139.926 103.346C138.28 105.65 136.25 107.518 133.541 108.581C133.128 108.743 132.931 109.456 132.635 109.915C133.178 110.028 133.717 110.184 134.265 110.235C134.498 110.257 134.758 110.072 134.995 109.96C139.216 107.962 141.94 104.543 143.735 100.38C144.427 98.7742 144.663 96.9551 144.959 95.2082C145.019 94.8585 144.412 94.3956 144.112 93.9849C143.79 94.3773 143.308 94.7226 143.177 95.1707C142.767 96.574 142.491 98.016 142.071 99.6704ZM76.8986 59.8361C75.0601 57.956 73.2368 56.0605 71.3703 54.2086C70.9974 53.8387 70.4596 53.6349 69.9978 53.3546C69.896 53.4748 69.7941 53.595 69.6922 53.7153C69.8298 54.0228 69.895 54.4013 70.1162 54.6268C72.2161 56.7675 74.3333 58.8915 76.4753 60.9899C76.6878 61.1981 77.0979 61.2045 77.4164 61.3046C77.2969 60.8705 77.1775 60.4365 76.8986 59.8361ZM35.4293 49.3527C33.8543 49.7709 33.0385 50.702 33.6072 51.7908C33.9661 52.4778 34.938 53.2231 35.6453 53.2335C36.2418 53.2422 37.1914 52.3257 37.3842 51.648C37.7295 50.4339 37.0018 49.5686 35.4293 49.3527ZM64.1313 57.5805C64.1147 58.5737 64.0069 59.5777 64.1222 60.5553C64.1752 61.0047 64.6657 61.4025 64.9578 61.8237C65.2557 61.407 65.7589 61.0141 65.8107 60.5687C65.9368 59.4849 65.9395 58.3672 65.8191 57.2823C65.756 56.7134 65.3291 56.1849 65.0664 55.6381C64.7548 56.1931 64.4431 56.7481 64.1313 57.5805ZM57.4868 50.0337C57.7503 50.0335 58.052 50.1163 58.2693 50.016C58.7324 49.8023 59.1517 49.4936 59.5889 49.2238C59.1499 48.9628 58.7241 48.5064 58.2697 48.476C56.6953 48.3706 55.1084 48.3601 53.5323 48.4368C53.1376 48.456 52.7653 48.9367 52.3827 49.2053C52.7728 49.4675 53.1451 49.9175 53.5563 49.9564C54.7586 50.0701 55.9764 50.0198 57.4868 50.0337ZM63.9953 39.156C63.9955 40.3056 63.9313 41.4608 64.031 42.6016C64.0658 42.9988 64.506 43.3605 64.7611 43.7383C65.0365 43.3729 65.5143 43.0263 65.5501 42.6388C65.6649 41.3943 65.689 40.13 65.6053 38.8829C65.5502 38.0607 66.1947 36.8226 64.7363 36.6662C64.5732 36.6487 64.2534 38.0912 63.9953 39.156ZM90.4564 114.271C90.8304 114.114 91.2045 113.957 91.5785 113.801C91.3867 113.589 91.2274 113.242 90.9982 113.188C88.376 112.562 85.8065 112.473 83.5519 114.285C83.2934 114.492 83.2428 114.959 83.0957 115.305C83.4666 115.281 83.9322 115.393 84.1933 115.211C86.0461 113.92 88.0467 113.709 90.4564 114.271ZM111.628 98.1112C111.516 97.6893 111.542 97.0692 111.269 96.8789C109.9 95.9255 108.468 95.0588 107.023 94.2231C106.675 94.0219 106.191 94.0548 105.77 93.98C105.678 94.16 105.586 94.34 105.494 94.5201C107.46 95.7389 109.426 96.9578 111.628 98.1112ZM56.046 39.6448C56.0009 40.0175 55.7746 40.5567 55.9396 40.7363C57.1447 42.0472 58.413 43.3023 59.7039 44.5301C59.8996 44.7163 60.3163 44.6702 60.6308 44.7316C60.5965 44.4182 60.6824 43.9872 60.509 43.81C59.1226 42.3926 57.6871 41.0232 56.046 39.6448ZM72.7385 41.4546C72.8906 41.3107 73.1031 41.194 73.1826 41.0175C73.3705 40.5999 73.4952 40.1539 73.6454 39.7194C73.2028 39.8647 72.6588 39.8944 72.3368 40.177C71.3946 41.0041 70.5086 41.9031 69.6718 42.8376C69.4178 43.1212 69.3954 43.612 69.2669 44.0079C69.6619 43.9082 70.153 43.9226 70.4337 43.6867C71.1924 43.0491 71.8617 42.305 72.7385 41.4546ZM58.1823 56.346C58.5913 55.9369 59.0496 55.5645 59.3913 55.1053C59.6031 54.8206 59.6379 54.4041 59.7521 54.0468C59.3457 54.1275 58.8645 54.0986 58.5498 54.3136C58.037 54.664 57.5595 55.1217 57.2014 55.6289C56.7474 56.272 56.4277 57.0099 56.05 57.7069C56.7075 57.3065 57.365 56.9061 58.1823 56.346ZM102.703 94.0442C102.96 93.8619 103.218 93.6797 103.475 93.4974C103.265 93.2967 103.075 92.9569 102.84 92.9227C102.247 92.8361 101.633 92.8667 101.031 92.9069C100.95 92.9124 100.889 93.242 100.819 93.4216C101.361 93.6217 101.904 93.8218 102.703 94.0442Z" fill="#2054DD"/>
<path d="M156.021 86.7843C156.237 86.7333 156.356 86.7343 156.533 86.7339C155.848 87.6009 155.105 88.4693 154.362 89.3376C153.974 87.7695 154.92 87.2802 156.021 86.7843Z" fill="#2054DD"/>
<path d="M161.504 99.3936C161.529 99.3311 161.549 99.2625 161.568 99.1938C161.592 99.2777 161.615 99.3616 161.563 99.4098C161.488 99.3741 161.498 99.3876 161.504 99.3936Z" fill="#2054DD"/>
<path d="M157.973 110.692C158.065 110.69 158.154 110.677 158.242 110.663C158.172 110.717 158.102 110.771 157.996 110.741C157.961 110.658 157.968 110.681 157.973 110.692Z" fill="#2054DD"/>
<path d="M67.0402 94.795C62.5013 99.0796 57.8422 103.021 52.3236 105.806C47.2843 108.349 42.0057 110.059 36.3075 110.147C25.6271 110.312 17.4784 104.297 14.7511 93.9642C13.8858 90.686 13.6494 87.2342 13.258 83.8464C13.1964 83.3135 13.8438 82.6988 14.1633 82.1219C14.5054 82.633 15.0714 83.1111 15.1525 83.6607C15.5968 86.6721 15.6297 89.7718 16.3406 92.7114C19.0018 103.716 28.007 109.609 39.2128 108.049C48.4036 106.769 56.0862 102.437 62.6446 96.1829C68.9312 90.1881 74.8171 83.773 80.8783 77.5418C81.2825 77.1263 81.7787 76.7592 82.0517 76.2691C82.3172 75.7925 82.5549 75.1452 82.4531 74.6442C81.7325 71.0969 84.1427 68.7799 87.6858 69.5693C88.2383 69.6924 89.082 69.3328 89.5415 68.9192C93.5946 65.2709 97.8684 61.9414 102.834 59.6162C110.922 55.8284 119.317 54.1437 128.162 56.3816C134.594 58.009 139.568 61.6608 142.841 67.5047C143.072 67.9178 143.41 68.3409 143.442 68.7781C143.48 69.2996 143.242 69.8415 143.123 70.3746C142.679 70.1051 142.099 69.936 141.813 69.5494C140.412 67.6532 139.325 65.4682 137.696 63.8091C132.905 58.9312 126.794 57.1984 120.13 57.3025C110.414 57.4542 102 61.1242 94.5229 67.1524C93.2106 68.2104 91.8907 69.2744 90.7052 70.4658C90.2889 70.8841 90.0053 71.7381 90.1055 72.316C90.6394 75.3943 88.2837 77.8702 85.2665 77.1161C84.2919 76.8725 83.8378 77.1547 83.2546 77.7703C77.8901 83.4324 72.5045 89.0746 67.0402 94.795ZM85.3282 75.1952C87.3429 75.5613 88.849 74.4231 88.2252 72.8873C87.9474 72.2032 87.0891 71.49 86.375 71.3333C85.8201 71.2115 84.8213 71.7695 84.4801 72.3139C83.8841 73.2648 84.0922 74.3261 85.3282 75.1952Z" fill="white"/>
<path d="M60.3483 75.0314C60.6266 74.531 60.8262 74.1215 61.1582 73.4405C60.4428 73.5063 59.9809 73.4694 59.5733 73.6008C58.2247 74.0357 56.9166 74.6114 55.55 74.9683C54.9083 75.1359 53.7106 75.1557 53.5563 74.847C53.0353 73.8046 54.1135 73.5845 54.805 73.3234C56.3756 72.7303 57.9411 72.03 59.5741 71.7326C60.4782 71.568 61.9135 71.8287 62.3758 72.4465C62.8178 73.0373 62.6643 74.6112 62.1531 75.2779C60.5316 77.3923 58.6944 79.3599 56.7893 81.23C55.8913 82.1116 55.2919 82.8797 55.1112 84.2203C54.3909 89.5628 48.9426 93.1782 43.6788 91.8582C42.455 91.5514 41.5341 91.8096 40.4233 92.2676C37.9148 93.3017 35.361 94.3645 32.7211 94.8995C30.3601 95.378 29.288 93.6533 30.5834 91.6133C31.6707 89.901 33.1315 88.4138 34.5261 86.9194C34.7807 86.6466 35.5119 86.8186 36.0231 86.7852C35.921 87.2929 35.9741 87.9228 35.6882 88.2856C34.7786 89.4399 33.718 90.4737 32.7688 91.5988C32.4164 92.0166 32.2108 92.5582 31.7016 93.4647C34.9587 92.9698 37.4298 91.6778 40.0471 90.4004C36.3983 86.953 35.0446 82.9848 37.3025 78.3873C39.0645 74.7994 42.1569 72.9941 46.1493 73.1597C50.6582 73.3468 53.4642 75.9561 55.1633 80.4537C56.9539 78.5842 58.6118 76.8533 60.3483 75.0314ZM52.7604 84.5583C50.0807 86.3846 47.4009 88.2108 44.6842 90.0623C48.6765 90.759 52.6453 88.0656 53.0621 84.5162C53.0339 84.5209 53.0056 84.5256 52.7604 84.5583ZM42.4946 89.0582C45.7791 86.866 49.0493 84.6521 52.357 82.4956C53.2937 81.8849 53.368 81.2312 53.0167 80.2371C51.9249 77.147 49.2125 75.0816 46.0016 75.0184C42.6603 74.9527 39.8003 76.8693 38.6293 79.9588C37.2446 83.6125 39.0295 88.0965 42.4946 89.0582Z" fill="white"/>
<path d="M99.4782 102.252C97.724 101.011 96.031 99.8734 94.3782 98.6803C93.8345 98.2878 93.3952 97.7507 92.9081 97.2797C93.5078 96.9319 94.0682 96.4077 94.7134 96.2638C100.855 94.8946 106.195 96.6188 110.765 100.766C113.179 102.957 115.482 105.289 117.657 107.718C119.577 109.862 121.829 110.984 124.682 111.119C125.167 111.143 125.624 111.768 126.094 112.114C125.607 112.396 125.118 112.926 124.634 112.921C121.495 112.886 118.85 111.766 116.651 109.405C114.07 106.635 111.416 103.908 108.57 101.418C105.68 98.8891 102.217 97.5143 98.2691 97.7135C97.9831 97.728 97.699 97.7791 97.9691 97.4147C99.2822 99.0348 100.782 100.542 101.854 102.308C102.841 103.936 103.616 105.786 104.036 107.64C104.599 110.116 103.15 112.275 100.612 112.604C98.6932 112.853 96.6662 112.52 94.7198 112.229C93.1179 111.989 91.5719 111.396 89.9868 111.019C86.0357 110.081 82.7177 111.066 80.098 114.268C79.5873 114.893 78.9902 116.111 77.9962 115.285C76.9487 114.415 78.137 113.766 78.6559 113.112C81.992 108.906 86.3462 108.103 91.2999 109.34C93.3401 109.849 95.3608 110.44 97.4093 110.912C98.1109 111.073 98.8866 111.098 99.5995 110.992C101.761 110.669 102.738 109.411 102.064 107.339C101.493 105.584 100.411 103.996 99.4782 102.252Z" fill="white"/>
<path d="M149.567 83.3096C146.421 86.1972 143.385 89.0349 140.271 91.7853C139.797 92.2043 138.619 92.5907 138.362 92.3517C137.517 91.5664 138.434 90.9826 138.986 90.472C141.149 88.4724 143.331 86.4949 145.51 84.5131C145.883 84.1736 146.274 83.8534 146.469 83.218C144.709 83.218 142.948 83.2603 141.19 83.1938C140.615 83.172 140.051 82.8671 139.482 82.6916C139.693 82.1466 139.781 81.4982 140.137 81.0738C142.027 78.8166 143.953 76.5869 145.946 74.4208C146.314 74.0212 147.047 73.9577 147.611 73.739C147.521 74.3761 147.648 75.1863 147.303 75.6203C145.813 77.4921 144.185 79.2536 142.537 81.1357C144.771 81.1357 146.798 81.0935 148.82 81.1653C149.326 81.1833 149.819 81.5683 150.318 81.7847C150.095 82.2668 149.873 82.749 149.567 83.3096Z" fill="white"/>
<path d="M13.7136 68.6393C12.4516 65.5229 13.5239 62.5526 16.2466 61.3676C18.9451 60.1932 22.0629 61.4185 23.2398 64.116C24.3357 66.628 23.2996 69.5475 20.8377 70.8846C18.3504 72.2354 15.5908 71.4014 13.7136 68.6393ZM15.9195 68.5492C17.7919 70.0551 19.7325 69.9696 21.0548 68.323C22.2047 66.8909 21.9365 64.7007 20.4661 63.5172C19.273 62.5569 17.4217 62.5715 16.2327 63.5506C14.7802 64.7466 14.6106 66.4466 15.9195 68.5492Z" fill="white"/>
<path d="M70.0145 49.3755C69.8824 52.3828 68.0341 54.3907 65.3283 54.4665C62.6726 54.5409 60.5089 52.6671 60.2641 50.0807C60.0227 47.5302 61.8009 45.241 64.3964 44.7609C66.663 44.3416 68.806 45.6965 69.7521 48.3744C69.8352 48.8569 69.9248 49.1162 70.0145 49.3755ZM62.949 47.5319C61.7734 49.4046 61.8892 50.9041 63.2929 51.9859C64.5578 52.9607 66.3409 52.7873 67.4032 51.5862C68.3842 50.477 68.4113 48.8751 67.4689 47.6939C66.4287 46.3899 64.9298 46.2746 62.949 47.5319Z" fill="white"/>
<path d="M142.115 99.5567C142.489 98.016 142.766 96.5739 143.175 95.1706C143.306 94.7226 143.788 94.3772 144.11 93.9849C144.41 94.3955 145.017 94.8585 144.958 95.2081C144.661 96.9551 144.425 98.7741 143.733 100.38C141.938 104.542 139.214 107.962 134.993 109.96C134.756 110.072 134.496 110.257 134.263 110.235C133.715 110.184 133.176 110.028 132.633 109.914C132.93 109.456 133.126 108.743 133.54 108.581C136.248 107.518 138.278 105.65 139.925 103.346C140.746 102.196 141.361 100.9 142.115 99.5567Z" fill="white"/>
<path d="M76.9775 59.9192C77.1767 60.4364 77.2961 60.8705 77.4156 61.3045C77.0971 61.2045 76.687 61.198 76.4745 60.9898C74.3325 58.8914 72.2153 56.7674 70.1154 54.6268C69.8942 54.4013 69.829 54.0228 69.6914 53.7152C69.7933 53.595 69.8952 53.4747 69.997 53.3545C70.4588 53.6349 70.9966 53.8386 71.3695 54.2086C73.236 56.0605 75.0593 57.9559 76.9775 59.9192Z" fill="white"/>
<path d="M35.5543 49.3542C37.0001 49.5685 37.7278 50.4339 37.3825 51.6479C37.1898 52.3257 36.2402 53.2422 35.6437 53.2334C34.9363 53.223 33.9645 52.4778 33.6056 51.7907C33.0368 50.702 33.8526 49.7708 35.5543 49.3542Z" fill="white"/>
<path d="M70.1498 49.4107C69.9276 49.1162 69.8379 48.8569 69.7578 48.4873C71.8365 48.3043 73.9064 48.1744 75.9741 48.2039C76.4282 48.2104 76.8742 48.7836 77.324 49.0958C76.8332 49.3479 76.3379 49.8225 75.8525 49.8126C73.9941 49.7748 72.1388 49.5813 70.1498 49.4107Z" fill="white"/>
<path d="M64.132 57.4418C64.4438 56.7482 64.7555 56.1932 65.0671 55.6382C65.3297 56.1849 65.7566 56.7135 65.8198 57.2824C65.9402 58.3673 65.9374 59.485 65.8114 60.5688C65.7596 61.0142 65.2564 61.407 64.9585 61.8237C64.6664 61.4026 64.1759 61.0048 64.1229 60.5554C64.0076 59.5777 64.1154 58.5738 64.132 57.4418Z" fill="white"/>
<path d="M57.3375 50.0336C55.9764 50.0196 54.7587 50.0699 53.5564 49.9563C53.1452 49.9174 52.7729 49.4674 52.3828 49.2052C52.7654 48.9366 53.1376 48.4559 53.5324 48.4367C55.1085 48.36 56.6954 48.3704 58.2697 48.4759C58.7241 48.5063 59.15 48.9626 59.589 49.2237C59.1518 49.4935 58.7325 49.8022 58.2694 50.0159C58.0521 50.1162 57.7504 50.0334 57.3375 50.0336Z" fill="white"/>
<path d="M64.0018 39.0063C64.2544 38.0912 64.5741 36.6487 64.7373 36.6662C66.1957 36.8226 65.5511 38.0607 65.6063 38.8828C65.69 40.1299 65.6659 41.3943 65.551 42.6387C65.5153 43.0262 65.0375 43.3729 64.7621 43.7383C64.507 43.3604 64.0668 42.9987 64.032 42.6016C63.9322 41.4608 63.9965 40.3056 64.0018 39.0063Z" fill="white"/>
<path d="M90.3165 114.255C88.0447 113.709 86.0441 113.92 84.1913 115.211C83.9302 115.392 83.4647 115.281 83.0938 115.305C83.2408 114.959 83.2915 114.492 83.5499 114.285C85.8045 112.472 88.374 112.562 90.9962 113.187C91.2254 113.242 91.3847 113.589 91.5765 113.801C91.2025 113.957 90.8284 114.114 90.3165 114.255Z" fill="white"/>
<path d="M111.507 98.1439C109.423 96.9577 107.458 95.7389 105.492 94.52C105.584 94.34 105.676 94.16 105.768 93.98C106.189 94.0547 106.673 94.0219 107.02 94.2231C108.466 95.0587 109.898 95.9255 111.266 96.8789C111.54 97.0692 111.513 97.6893 111.507 98.1439Z" fill="white"/>
<path d="M56.1571 39.6421C57.6879 41.0233 59.1234 42.3927 60.5098 43.8101C60.6832 43.9874 60.5973 44.4183 60.6316 44.7317C60.3171 44.6704 59.9005 44.7164 59.7047 44.5302C58.4138 43.3024 57.1456 42.0474 55.9404 40.7364C55.7754 40.5569 56.0017 40.0176 56.1571 39.6421Z" fill="white"/>
<path d="M72.6513 41.529C71.8604 42.3051 71.1912 43.0491 70.4324 43.6868C70.1517 43.9226 69.6607 43.9082 69.2656 44.008C69.3941 43.6121 69.4166 43.1212 69.6705 42.8377C70.5074 41.9031 71.3933 41.0041 72.3356 40.1771C72.6576 39.8945 73.2016 39.8648 73.6442 39.7195C73.4939 40.154 73.3692 40.6 73.1813 41.0176C73.1019 41.1941 72.8893 41.3108 72.6513 41.529Z" fill="white"/>
<path d="M58.1031 56.4259C57.3657 56.9061 56.7083 57.3065 56.0508 57.7069C56.4284 57.0099 56.7481 56.2721 57.2021 55.629C57.5602 55.1217 58.0377 54.664 58.5505 54.3136C58.8652 54.0987 59.3464 54.1275 59.7528 54.0469C59.6386 54.4042 59.6039 54.8207 59.392 55.1054C59.0504 55.5646 58.592 55.937 58.1031 56.4259Z" fill="white"/>
<path d="M102.575 94.0332C101.905 93.8219 101.362 93.6218 100.82 93.4217C100.89 93.2421 100.951 92.9125 101.032 92.907C101.634 92.8668 102.248 92.8362 102.841 92.9228C103.076 92.957 103.266 93.2968 103.476 93.4975C103.219 93.6798 102.961 93.862 102.575 94.0332Z" fill="white"/>
<path d="M32.7239 17.7495C32.8419 17.7663 32.9067 17.8365 32.9715 17.9068C32.881 17.9377 32.7905 17.9687 32.6346 17.957C32.5691 17.9142 32.6707 17.8029 32.7239 17.7495Z" fill="white"/>
<path d="M85.2175 75.1262C84.0901 74.3262 83.882 73.2649 84.478 72.3139C84.8192 71.7696 85.818 71.2115 86.3729 71.3333C87.087 71.49 87.9453 72.2033 88.2231 72.8873C88.8469 74.4231 87.3408 75.5613 85.2175 75.1262Z" fill="#2054DD"/>
<path d="M42.395 89.1164C39.0283 88.0966 37.2433 83.6126 38.628 79.9589C39.799 76.8694 42.659 74.9528 46.0003 75.0185C49.2113 75.0817 51.9236 77.1471 53.0155 80.2372C53.3667 81.2313 53.2924 81.885 52.3558 82.4956C49.0481 84.6522 45.7778 86.8661 42.395 89.1164Z" fill="#2054DD"/>
<path d="M52.9533 84.5034C52.6447 88.0657 48.6759 90.759 44.6836 90.0624C47.4003 88.2109 50.0801 86.3847 52.8628 84.5373C52.9658 84.5163 52.9533 84.5034 52.9533 84.5034Z" fill="#2054DD"/>
<path d="M52.9702 84.5236C53.0045 84.526 53.0332 84.5212 53.0069 84.5098C52.9519 84.5033 52.9646 84.5164 52.9702 84.5236Z" fill="#2054DD"/>
<path d="M15.8363 68.4599C14.6113 66.4465 14.7809 64.7465 16.2334 63.5505C17.4224 62.5714 19.2737 62.5568 20.4668 63.5171C21.9372 64.7005 22.2054 66.8907 21.0554 68.3229C19.7332 69.9694 17.7926 70.0549 15.8363 68.4599Z" fill="#2054DD"/>
<path d="M63.0401 47.4455C64.9342 46.2744 66.4331 46.3898 67.4733 47.6937C68.4157 48.875 68.3886 50.4768 67.4076 51.5861C66.3453 52.7871 64.5622 52.9605 63.2973 51.9857C61.8936 50.9039 61.7778 49.4044 63.0401 47.4455Z" fill="#2054DD"/>
</svg>
