<svg width="528" height="164" viewBox="0 0 528 164" fill="none" xmlns="http://www.w3.org/2000/svg">
<path d="M346.158 48.3762C347.112 48.3764 347.829 48.3684 348.546 48.378C358.084 48.5061 363.446 57.3809 358.891 65.8097C357.819 67.7924 355.793 69.2589 353.861 71.3332C356.714 73.9458 359.922 76.8828 363.491 80.1506C359.562 80.8105 356.58 80.8473 354.544 77.5949C351.217 72.2801 346.429 70.2905 340.246 71.3143C338.546 71.5958 336.76 71.3571 334.855 71.3571C334.855 70.1141 334.855 68.9609 334.855 67.4377C336.147 67.4377 337.541 67.4591 338.935 67.4336C342.913 67.3607 346.918 67.5236 350.862 67.1091C354.461 66.7308 356.277 63.7247 356.074 59.4952C355.881 55.4565 353.963 53.1718 350.364 52.7417C349.655 52.657 348.932 52.6762 348.215 52.6756C342.408 52.6709 336.601 52.673 330.592 52.673C330.592 61.9716 330.592 71.0995 330.592 80.3386C329.144 80.3386 327.898 80.3386 326.477 80.3386C326.477 69.8009 326.477 59.2539 326.477 48.3762C332.935 48.3762 339.428 48.3762 346.158 48.3762Z" fill="#FDFDFE"/>
<path d="M267.533 48.9022C275.16 51.5899 279.183 57.666 278.547 65.2809C277.874 73.3496 272.968 79.1945 265.578 80.2346C262.447 80.6752 259.217 80.4259 256.032 80.4491C252.451 80.4753 248.87 80.4552 245.188 80.4552C245.188 69.7488 245.188 59.1729 245.188 48.866C252.596 48.866 259.967 48.866 267.533 48.9022ZM255.943 76.158C258.569 76.1476 261.2 76.2261 263.822 76.1086C269.702 75.8451 273.895 71.2814 274.271 64.8586C274.625 58.8116 270.708 53.3676 265.008 52.887C259.892 52.4557 254.712 52.7962 249.465 52.7962C249.465 60.5762 249.465 68.2545 249.465 76.158C251.525 76.158 253.495 76.158 255.943 76.158Z" fill="#FAFAFC"/>
<path d="M503.826 52.6746C500.068 52.9363 498.333 54.5706 498.415 57.5679C498.496 60.5215 500.364 62.1237 503.932 62.1591C508.795 62.2074 513.659 62.1712 518.523 62.1908C526.459 62.2229 528.591 67.6695 527.442 73.9051C526.752 77.6504 523.702 80.2433 519.557 80.334C511.285 80.5149 503.005 80.3876 494.605 80.3876C494.605 78.9863 494.605 77.6841 494.605 76.1592C500.797 76.1592 506.916 76.161 513.035 76.1582C514.948 76.1574 516.865 76.2149 518.774 76.1211C521.843 75.9704 523.705 74.0351 523.73 71.1087C523.755 68.112 522.013 66.2128 518.818 66.1419C513.718 66.0285 508.613 66.1483 503.511 66.0789C496.639 65.9854 492.528 60.7176 494.356 54.4579C495.459 50.6816 498.21 48.6428 501.889 48.5322C509.916 48.2907 517.955 48.4575 526.098 48.4575C526.098 49.8654 526.098 51.1689 526.098 52.6742C518.677 52.6742 511.361 52.6742 503.826 52.6746Z" fill="#FCFCFD"/>
<path d="M365.569 68.2185C364.461 61.3826 365.591 55.477 371.316 51.1679C378.539 45.7319 395.576 47.5788 400.493 54.5164C404.39 60.0142 404.42 66.1016 401.595 71.9933C398.884 77.6458 394.076 80.4637 387.725 80.4557C385.492 80.453 383.259 80.4649 381.027 80.454C373.122 80.4153 367.599 76.0892 365.569 68.2185ZM371.688 56.9571C371.294 57.6458 370.826 58.3028 370.518 59.0278C367.307 66.5922 371.336 76.5466 381.288 76.1701C383.678 76.0796 386.077 76.2184 388.466 76.1233C394.684 75.8758 399.131 70.9304 399.152 64.3258C399.172 57.8043 394.84 52.986 388.604 52.7219C385.817 52.6039 383.021 52.644 380.23 52.6985C376.871 52.7642 374.032 53.9965 371.688 56.9571Z" fill="#F9FAFB"/>
<path d="M235.027 50.9112C235.027 49.9752 235.027 49.2621 235.027 48.4663C236.41 48.4663 237.66 48.4663 239.026 48.4663C239.026 58.5243 239.074 68.4891 238.992 78.453C238.972 80.847 237.118 81.6284 235.218 80.2027C234.523 79.6811 233.93 79.0155 233.322 78.3847C225.91 70.6885 218.503 62.9865 210.766 54.9439C210.766 63.6017 210.766 71.8892 210.766 80.3145C209.244 80.3145 208.004 80.3145 206.563 80.3145C206.528 79.673 206.458 78.9834 206.458 78.2937C206.45 69.5197 206.452 60.7456 206.455 51.9716C206.455 51.4138 206.314 50.7781 206.531 50.3155C206.912 49.5039 207.379 48.4099 208.071 48.161C208.722 47.9268 209.942 48.3959 210.514 48.9595C214.319 52.7103 218.015 56.5711 221.75 60.3932C225.596 64.3292 229.442 68.2655 233.299 72.1909C233.726 72.6255 234.225 72.9892 235.027 73.673C235.027 65.8923 235.027 58.5132 235.027 50.9112Z" fill="#F9F9FB"/>
<path d="M408.459 69.4403C408.46 63.2995 408.377 57.3958 408.531 51.4983C408.562 50.3366 409.509 49.1988 410.033 48.05C411.093 48.5709 412.388 48.8575 413.176 49.6491C420.432 56.9414 427.598 64.3231 434.797 71.6716C435.39 72.2772 436.037 72.8302 436.982 73.707C436.982 65.0267 436.982 56.781 436.982 48.4548C438.36 48.4548 439.542 48.4548 440.919 48.4548C440.965 48.964 441.052 49.48 441.053 49.9961C441.061 59.0876 441.109 68.1798 440.995 77.2699C440.98 78.4448 440.112 79.609 439.64 80.7782C438.476 80.2656 437.02 80.039 436.193 79.196C428.434 71.2857 420.783 63.27 412.769 54.9411C412.769 63.6039 412.769 71.8911 412.769 80.3152C411.25 80.3152 410.01 80.3152 408.459 80.3152C408.459 76.7987 408.459 73.2392 408.459 69.4403Z" fill="#F9F9FB"/>
<path d="M461.219 52.8552C464.607 49.5493 468.577 48.3044 473.078 48.3589C478.404 48.4233 483.73 48.374 489.19 48.374C489.19 49.8141 489.19 51.1185 489.19 52.6756C483.777 52.6756 478.383 52.6923 472.989 52.6707C468.069 52.6509 464.232 54.5508 462.366 59.2379C460.469 64.0001 460.933 68.639 464.368 72.6547C466.51 75.1593 469.391 76.174 472.669 76.1617C478.148 76.1411 483.627 76.156 489.215 76.156C489.215 77.6019 489.215 78.8517 489.215 80.2742C488.777 80.3275 488.256 80.4447 487.735 80.4459C482.555 80.4582 477.375 80.5012 472.196 80.4382C464.513 80.3448 458.195 74.6563 457.244 67.0029C456.6 61.8126 457.437 56.9993 461.219 52.8552Z" fill="#FAFBFC"/>
<path d="M309.499 63.2175C309.498 69.0323 309.498 74.6077 309.498 80.3169C308.05 80.3169 306.749 80.3169 305.303 80.3169C305.303 71.1652 305.303 62.086 305.303 52.7326C301.079 52.7326 296.986 52.7326 292.777 52.7326C292.777 51.2188 292.777 49.974 292.777 48.5515C302.435 48.5515 312.118 48.5515 321.957 48.5515C321.957 49.8093 321.957 51.1107 321.957 52.6165C317.872 52.6165 313.837 52.6165 309.499 52.6165C309.499 56.1997 309.499 59.589 309.499 63.2175Z" fill="#FDFDFE"/>
<path d="M196 52.2528C196 50.9159 196 49.8113 196 48.5393C197.435 48.5393 198.739 48.5393 200.17 48.5393C200.17 59.0452 200.17 69.5929 200.17 80.3008C198.89 80.3008 197.588 80.3008 196 80.3008C196 71.0501 196 61.7676 196 52.2528Z" fill="#F4F5F8"/>
<path d="M450.384 48.3689C450.931 48.6831 451.553 48.9953 451.555 49.3105C451.605 59.6436 451.596 69.977 451.596 80.385C450.157 80.385 448.896 80.385 447.473 80.385C447.473 69.8054 447.473 59.2649 447.473 48.3682C448.346 48.3682 449.258 48.3682 450.384 48.3689Z" fill="#F4F5F8"/>
<path d="M283.973 75.1727C283.973 66.189 283.973 57.4431 283.973 48.5359C285.382 48.5359 286.685 48.5359 288.129 48.5359C288.129 59.0417 288.129 69.5898 288.129 80.2965C286.875 80.2965 285.57 80.2965 283.973 80.2965C283.973 78.6957 283.973 77.0531 283.973 75.1727Z" fill="#FAFBFC"/>
<path d="M443.468 107.987C445.852 107.249 447.032 108.007 447.541 110.325C448.459 114.5 449.957 118.576 450.544 122.786C451.357 128.621 446.737 131.765 441.168 129.093C441.941 129.041 442.715 128.936 443.487 128.946C446.932 128.989 448.868 127.191 448.812 123.738C448.761 120.592 448.586 117.431 446.61 114.821C445.075 115.382 443.776 116.166 442.432 116.253C441.32 116.324 439.472 115.855 439.168 115.122C438.674 113.928 438.698 112.011 439.378 110.971C440.213 109.695 441.947 109.006 443.468 107.987ZM440.253 112.528C440.594 113.323 440.934 114.118 441.274 114.913C442.385 114.309 443.74 113.922 444.528 113.032C445.126 112.358 445.001 111.044 445.198 110.015C444.622 109.91 443.877 109.526 443.502 109.753C442.382 110.431 441.408 111.348 440.253 112.528Z" fill="#ECEDF3"/>
<path d="M316.097 116.335C314.703 115.806 313.069 115.571 312.409 114.643C311.331 113.127 312.082 111.41 313.421 110.176C314.17 109.485 315.029 108.86 315.94 108.41C318.925 106.936 320.243 107.465 321.085 110.676C322.208 114.958 323.552 119.244 324.037 123.614C324.626 128.914 319.496 131.892 314.735 128.967C315.621 128.967 316.507 128.957 317.392 128.969C319.625 128.998 321.192 128.04 321.998 125.915C323.013 123.24 321.908 117.146 319.958 114.833C318.746 115.324 317.52 115.821 316.097 116.335ZM317.128 109.663C315.279 110.383 313.518 111.249 313.821 113.652C313.884 114.148 315.046 114.996 315.154 114.919C316.43 114.003 317.697 113.027 318.741 111.866C319.053 111.52 318.736 110.523 318.548 109.87C318.496 109.692 317.868 109.68 317.128 109.663Z" fill="#ECEDF3"/>
<path d="M196 106.229C196.16 105.126 196.34 104.224 196.521 103.321C196.835 103.362 197.148 103.402 197.462 103.443C197.666 105.286 197.87 107.129 198.083 109.053C200.542 109.053 202.904 109.053 205.298 109.053C206.685 107.331 204.157 104.32 207.408 102.92C207.816 108.193 208.203 113.204 208.591 118.216C208.326 118.25 208.061 118.284 207.796 118.318C205.738 116.57 206.263 113.898 205.609 111.503C203.428 111.503 201.237 111.503 198.756 111.503C199.009 113.722 199.254 115.876 199.499 118.03C199.244 118.166 198.989 118.301 198.733 118.436C198.153 117.519 197.22 116.66 197.058 115.675C196.555 112.618 196.345 109.514 196 106.229Z" fill="#EEEFF5"/>
<path d="M225.843 110.906C226.209 112.053 226.535 113.016 226.884 114.047C228.567 113.097 227.03 109.887 229.583 110.141C231.1 110.291 232.508 111.542 234.181 112.41C234.476 111.995 235 111.138 235.64 110.379C237.023 108.74 238.553 108.644 239.434 110.482C240.37 112.432 240.711 114.676 241.217 116.814C241.281 117.088 240.776 117.498 240.534 117.845C240.12 117.486 239.46 117.197 239.333 116.756C238.837 115.028 238.509 113.252 238.102 111.419C235.872 111.794 235.853 113.652 235.099 114.931C234.669 115.66 234.081 116.296 233.564 116.974C233.079 116.217 232.528 115.494 232.127 114.695C231.647 113.739 231.294 112.719 230.887 111.727C230.565 111.771 230.243 111.816 229.921 111.86C229.601 113.518 229.319 115.185 228.939 116.829C228.826 117.316 228.522 117.997 228.15 118.121C227.772 118.248 226.886 117.913 226.763 117.581C225.793 114.944 224.933 112.266 224.108 109.58C224.041 109.363 224.485 108.989 225.039 108.182C225.389 109.349 225.596 110.035 225.843 110.906Z" fill="#F2F3F7"/>
<path d="M246.699 117.622C245.807 116.414 244.62 115.334 244.476 114.13C244.082 110.846 245.372 108.046 248.11 106.1C249.945 104.796 252.289 105.081 253.353 106.916C255.397 110.441 254.56 114.472 255.503 118.212C255.216 118.31 254.929 118.407 254.642 118.504C254.057 117.578 253.473 116.652 253.192 116.206C250.981 116.727 248.931 117.21 246.699 117.622ZM251.073 114.579C251.245 114.314 251.558 114.052 251.564 113.783C251.614 111.707 251.635 109.628 251.539 107.556C251.533 107.431 250.349 107.117 249.872 107.301C247.668 108.153 246.561 109.998 246.312 112.214C246.185 113.354 246.681 114.563 246.895 115.741C248.202 115.45 249.509 115.158 251.073 114.579Z" fill="#EEEFF5"/>
<path d="M454.186 109.039C454.663 110.415 454.994 111.657 455.535 112.8C456.227 114.263 457.288 115.273 459.177 114.757C459.4 112.311 459.623 109.873 459.845 107.436C460.182 107.466 460.52 107.496 460.857 107.526C461.643 113.803 461.715 120.05 460.153 126.231C459.819 126.231 459.484 126.231 459.149 126.231C459.149 123.32 459.149 120.409 459.149 117.655C454.139 115.81 451.381 110.895 452.975 106.376C453.47 107.438 453.801 108.15 454.186 109.039Z" fill="#F2F3F7"/>
<path d="M359.833 117.942C355.125 116.513 355.53 108.482 358.249 106.493C359.211 105.789 360.903 105.265 361.887 105.64C362.859 106.011 363.784 107.552 363.978 108.705C364.5 111.8 362.211 114.389 358.509 115.183C360.723 117.865 363.775 115.306 366.655 116.552C364.422 118.599 362.245 118.417 359.833 117.942ZM358.521 109.759C358.826 110.757 359.086 112.593 359.443 112.612C361.193 112.704 362.081 111.478 362.234 109.757C362.262 109.443 362.314 109.086 362.199 108.814C361.968 108.268 361.69 107.394 361.322 107.334C360.738 107.24 359.976 107.584 359.456 107.968C359.059 108.262 358.919 108.904 358.521 109.759Z" fill="#EEEFF5"/>
<path d="M343.9 105.805C341.713 105.649 339.751 105.488 337.695 105.319C338.416 104.043 348.22 103.156 352.955 104.313C352.16 104.647 351.387 105.184 350.565 105.276C347.628 105.605 347.198 105.955 347.591 108.978C347.836 110.858 348.473 112.684 348.874 114.547C349.12 115.686 349.252 116.848 349.435 118C349.176 118.161 348.916 118.322 348.657 118.483C348.061 117.791 347.103 117.178 346.936 116.395C346.306 113.447 345.993 110.433 345.419 107.471C345.299 106.854 344.573 106.355 343.9 105.805Z" fill="#ECEDF3"/>
<path d="M390.147 114.281C390.306 115.852 390.637 117.311 388.778 118.39C388.72 117.131 388.919 115.986 388.551 115.068C388.212 114.222 387.16 112.969 386.608 113.057C385.703 113.202 384.652 114.141 384.217 115.019C383.811 115.837 384.13 117.013 384.13 118.031C383.901 118.195 383.672 118.359 383.443 118.522C382.796 117.787 381.597 117.053 381.594 116.315C381.581 112.287 381.847 108.256 382.071 104.229C382.086 103.947 382.527 103.688 383.197 102.945C383.197 106.283 383.197 109.032 383.197 111.908C385.764 111.051 388.817 109.811 390.147 114.281Z" fill="#ECEDF3"/>
<path d="M435.543 110.614C436.3 114.272 434.062 117.634 430.661 118.228C427.698 118.746 425.648 116.183 426.46 112.976C427.099 110.448 430.095 107.99 432.696 108.319C433.696 108.445 434.554 109.695 435.543 110.614ZM430.278 116.417C432.952 115.553 434.521 113.573 433.992 111.459C433.852 110.903 432.633 110.071 432.581 110.117C431.054 111.484 429.571 112.91 428.244 114.467C428.15 114.577 429.308 115.755 430.278 116.417Z" fill="#EEEFF5"/>
<path d="M214.183 114.419C215.913 116.591 217.627 116.484 218.412 114.1C218.967 112.416 218.969 110.534 219.097 108.731C219.161 107.824 218.956 106.897 218.873 105.979C219.097 105.844 219.322 105.71 219.547 105.575C220.016 106.096 220.832 106.577 220.895 107.142C221.243 110.262 221.219 113.448 219.373 116.121C218.671 117.138 217.12 118.13 215.973 118.111C214.966 118.093 213.425 116.822 213.102 115.796C212.375 113.491 212.188 111.001 211.951 108.57C211.906 108.101 212.636 107.558 213.124 106.89C213.492 109.658 213.797 111.949 214.183 114.419Z" fill="#EEEFF5"/>
<path d="M411.313 118.231C407.677 118.043 406.047 115.233 407.568 112.042C408.699 109.672 410.733 108.493 413.256 108.257C415.52 108.044 417.244 110.885 416.473 113.49C415.732 115.994 413.942 117.459 411.313 118.231ZM414.834 112.578C414.53 111.742 414.44 110.616 413.844 110.176C413.466 109.897 412.233 110.494 411.566 110.961C410.733 111.543 409.876 112.287 409.427 113.164C409.054 113.894 408.89 115.212 409.306 115.728C409.728 116.253 411.276 116.547 411.796 116.182C412.966 115.358 413.806 114.064 414.834 112.578Z" fill="#F2F3F7"/>
<path d="M398.451 112.478C397.843 114.435 397.334 116.228 396.821 118.034C394.248 116.951 392.594 112.276 394.232 110.452C394.632 111.337 394.997 112.145 395.363 112.957C395.559 112.89 395.78 112.883 395.831 112.786C396.758 111.03 397.885 109.385 400.145 109.719C402.529 110.072 403.147 112.036 403.434 114.104C403.596 115.265 403.721 116.43 403.862 117.594C403.617 117.724 403.371 117.854 403.125 117.984C402.763 117.461 402.249 116.985 402.069 116.405C401.696 115.202 401.669 113.872 401.185 112.728C400.646 111.452 399.694 110.755 398.451 112.478Z" fill="#ECEDF3"/>
<path d="M269.423 117.134C268.454 118.195 268.008 117.963 267.83 116.693C267.654 115.441 267.444 114.161 266.991 112.994C266.749 112.373 266.02 111.702 265.396 111.56C265.037 111.479 264.21 112.327 264.009 112.901C263.442 114.522 263.091 116.218 262.656 117.879C260.226 117.357 258.389 112.79 259.827 110.297C260.321 111.319 260.737 112.179 261.16 113.054C261.352 112.966 261.529 112.943 261.572 112.855C262.449 111.049 263.581 109.435 265.848 109.72C268.289 110.028 268.809 112.103 269.202 114.093C269.386 115.023 269.362 115.993 269.423 117.134Z" fill="#F2F3F7"/>
<path d="M281.383 109.748C281.747 111.929 283.302 111.338 284.581 111.497C285.91 111.662 287.211 112.044 288.525 112.33C287.975 113.728 287.629 115.264 286.806 116.477C286.206 117.362 284.979 117.821 284.031 118.47C283.644 118.024 283.256 117.579 282.869 117.133C283.744 116.66 284.722 116.308 285.464 115.678C286.113 115.127 286.497 114.264 287.057 113.452C284.426 112.206 280.516 114.684 279.741 110.323C279.355 108.152 281.094 105.763 283.597 104.916C284.296 104.68 285.246 105.181 286.265 105.38C284.363 107.006 282.882 108.273 281.383 109.748Z" fill="#F2F3F7"/>
<path d="M302.656 116.567C302.121 117.097 301.623 117.45 301.124 117.802C300.348 115.496 299.568 113.19 298.821 110.874C298.808 110.833 299.192 110.665 299.578 110.453C299.954 111.308 300.308 112.111 300.65 112.889C300.919 112.829 301.126 112.843 301.169 112.765C302.124 111.038 303.234 109.384 305.505 109.72C307.916 110.077 308.462 112.099 308.793 114.117C308.982 115.27 309.022 116.447 308.624 117.942C308.252 117.58 307.683 117.28 307.546 116.844C307.192 115.718 307.162 114.48 306.741 113.387C306.46 112.658 305.73 112.102 305.201 111.468C304.586 112.104 303.772 112.643 303.405 113.399C302.968 114.299 302.914 115.385 302.656 116.567Z" fill="#EEEFF5"/>
<path d="M369.289 111.735C370.283 110.1 371.008 108.32 372.317 107.271C373.862 106.033 375.374 106.836 376.504 108.896C374.511 108.801 372.291 107.884 371.799 110.408C371.481 112.034 371.107 114.386 371.96 115.355C374.068 117.753 375.699 114.269 377.86 114.116C378.018 116.255 376.822 117.328 375.065 117.992C373.376 118.63 371.766 118.387 370.916 116.766C370.133 115.273 369.806 113.54 369.289 111.735Z" fill="#EEEFF5"/>
<path d="M420.59 110.726C420.639 108.309 419.174 106.052 420.593 103.621C422.221 105.83 423.528 115.529 422.646 118.881C420.481 116.392 421.262 113.459 420.59 110.726Z" fill="#EEEFF5"/>
<path d="M293.923 108.45C294.634 111.722 295.253 114.857 295.873 117.993C295.639 118.131 295.404 118.27 295.169 118.408C294.601 118.031 293.596 117.713 293.535 117.266C293.15 114.476 292.959 111.657 292.781 108.843C292.772 108.689 293.466 108.491 293.923 108.45Z" fill="#F2F3F7"/>
<path d="M276.355 118.136C276.119 118.248 276.026 118.286 275.962 118.258C273.511 117.172 272.65 109.947 275.174 107.802C275.645 111.401 276.079 114.717 276.355 118.136Z" fill="#ECEDF3"/>
<path d="M440.312 112.35C441.405 111.348 442.38 110.431 443.5 109.753C443.875 109.526 444.62 109.91 445.195 110.015C444.999 111.044 445.123 112.358 444.526 113.032C443.738 113.921 442.383 114.309 441.272 114.913C440.932 114.118 440.591 113.323 440.312 112.35Z" fill="#14256C"/>
<path d="M317.314 109.627C317.866 109.679 318.495 109.691 318.546 109.87C318.734 110.523 319.051 111.519 318.739 111.865C317.695 113.027 316.428 114.002 315.152 114.919C315.044 114.996 313.882 114.147 313.819 113.652C313.516 111.249 315.277 110.383 317.314 109.627Z" fill="#14256C"/>
<path d="M250.942 114.723C249.506 115.158 248.199 115.45 246.893 115.741C246.678 114.564 246.182 113.354 246.31 112.215C246.558 109.998 247.665 108.153 249.869 107.301C250.346 107.117 251.53 107.432 251.536 107.556C251.633 109.628 251.612 111.707 251.562 113.783C251.555 114.052 251.242 114.314 250.942 114.723Z" fill="#11226A"/>
<path d="M358.594 109.576C358.92 108.905 359.059 108.262 359.457 107.968C359.977 107.584 360.739 107.24 361.323 107.334C361.691 107.394 361.969 108.268 362.199 108.814C362.314 109.086 362.263 109.443 362.235 109.757C362.082 111.478 361.194 112.704 359.443 112.612C359.087 112.593 358.827 110.757 358.594 109.576Z" fill="#14256C"/>
<path d="M430.08 116.426C429.308 115.754 428.15 114.577 428.244 114.467C429.57 112.91 431.054 111.484 432.581 110.117C432.632 110.071 433.852 110.902 433.991 111.459C434.52 113.572 432.952 115.553 430.08 116.426Z" fill="#11226A"/>
<path d="M414.805 112.77C413.803 114.064 412.964 115.358 411.793 116.182C411.274 116.547 409.725 116.253 409.303 115.728C408.888 115.212 409.051 113.894 409.424 113.164C409.873 112.287 410.73 111.543 411.563 110.961C412.23 110.494 413.463 109.897 413.842 110.176C414.438 110.616 414.527 111.742 414.805 112.77Z" fill="#14256C"/>
<path d="M157.959 110.658C157.792 111.382 157.698 112.133 157.445 112.825C155.756 117.446 153.622 121.827 150.446 125.643C150.163 125.982 150.055 126.471 149.884 126.897C149.786 127.138 149.799 127.535 149.636 127.622C147.413 128.797 147.231 131.75 144.938 132.908C143.797 133.484 142.967 134.459 143.12 135.975C143.157 136.337 142.747 136.785 142.468 137.134C139.766 140.5 136.309 143.016 132.899 145.583C125.76 150.958 118.31 155.782 109.635 158.326C107.069 159.079 104.414 159.525 101.804 160.131C101.154 160.282 100.521 160.508 99.6084 160.781C100.354 161.2 100.822 161.464 101.649 161.929C99.0495 162.435 96.8294 162.973 94.5772 163.238C93.9493 163.312 93.2265 162.579 92.1845 162.023C88.756 162.38 84.7961 163.021 80.822 163.125C78.1912 163.194 75.4961 162.677 72.9163 162.061C71.5353 161.731 70.4526 161.732 69.1844 162.313C68.2835 162.725 67.2002 162.902 66.2006 162.894C64.9662 162.885 63.922 162.518 63.8122 160.858C63.7745 160.288 62.8642 159.707 62.2546 159.266C61.8202 158.951 60.9454 159.014 60.7456 158.648C59.9504 157.191 59.369 155.618 58.6552 154.114C58.2912 153.346 60.0976 152.804 58.9014 152.179C58.4938 151.966 57.6582 152.636 56.9962 152.826C56.4302 152.989 55.8328 153.041 55.1213 153.165C55.4477 152.352 57.3566 152.257 56.0861 150.944C55.1482 149.975 54.1416 150.118 53.2588 150.672C53.1636 151.694 53.2227 152.605 52.9494 153.401C52.7918 153.861 52.0972 154.136 51.6443 154.494C51.4553 154.056 51.2469 153.626 51.0872 153.178C51.0264 153.007 51.0773 152.796 51.0773 152.508C50.1418 152.508 49.3038 152.545 48.4709 152.496C47.8466 152.459 47.1435 152.464 46.6279 152.177C45.8223 151.728 44.8656 151.18 44.5071 150.421C44.242 149.861 44.827 148.898 45.1326 147.737C44.1979 147.808 43.2229 147.883 42.2344 147.958C42.5571 150.121 42.8303 151.952 43.1035 153.783C42.9329 153.91 42.7623 154.038 42.5917 154.166C41.0867 152.344 39.0404 151.666 36.675 151.352C37.1242 150.223 37.4441 149.42 37.764 148.616C37.6892 148.502 37.6144 148.389 37.5396 148.275C36.7429 148.784 35.9462 149.293 35.1265 149.817C32.9796 149.285 32.6689 147.327 32.0819 145.742C33.2893 144.915 34.4218 144.138 35.5825 143.343C34.8825 142.028 34.284 141.139 32.8702 142.244C32.6424 142.422 32.0819 142.192 31.6796 142.125C31.1407 142.034 30.6062 141.918 29.8062 141.762C30.1415 142.563 30.3601 143.085 30.7066 143.913C29.6304 143.507 28.8584 143.215 28.0718 142.918C26.9023 141.382 27.5399 138.612 24.7143 137.787C25.8996 136.097 26.4143 134.307 24.2557 133.336C23.3071 134.066 22.6271 135.005 22.0229 134.959C21.1121 134.889 20.1252 134.274 19.4075 133.627C18.5669 132.87 18.025 131.791 17.2626 130.933C16.9369 130.566 16.3188 130.117 15.9412 130.2C14.5846 130.495 14.2273 129.519 13.6764 128.714C7.32997 119.433 3.01352 109.298 0.874098 98.2526C0.751914 97.6218 0.262531 96.8352 1.33697 96.3758C1.54884 96.2853 1.62016 95.4966 1.51604 95.0916C-0.0901741 88.8442 -0.136689 82.4913 0.111995 76.1067C0.233957 72.9755 -0.152343 69.8262 0.728815 66.7312C1.35868 64.5189 1.68998 62.2179 2.37665 60.0261C3.44213 56.6252 4.66343 53.2713 5.90039 49.9277C6.13745 49.2869 6.64417 48.6086 7.21674 48.261C8.09995 47.7248 9.01869 47.3869 8.69976 46.0695C8.66424 45.9228 8.94198 45.6446 9.13215 45.5074C11.113 44.0775 11.674 42.0111 11.8607 39.7211C11.9212 38.9791 12.1309 38.1548 12.5423 37.5525C14.175 35.1622 15.7092 32.6556 17.6584 30.5409C21.4061 26.475 25.4229 22.6577 29.3011 18.7108C30.1785 17.8179 31.1582 17.6121 32.505 17.9585C32.7887 17.9687 32.8792 17.9377 32.9697 17.9067C32.9049 17.8365 32.8401 17.7663 32.7752 17.6961C32.7073 17.3432 32.6394 16.9903 32.5559 16.5567C34.7238 15.6246 36.841 14.5785 38.0927 12.3799C38.2556 12.0937 38.6719 11.9404 38.9877 11.7544C55.074 2.27709 72.378 -1.58564 90.9573 0.59076C106.563 2.41877 120.467 8.37334 132.739 18.1423C133.957 19.1118 134.939 20.3919 135.965 21.5847C137.991 23.9407 139.88 26.4221 142.007 28.6803C143.09 29.8288 144.575 30.5938 145.859 31.5575C146.226 31.8323 146.574 32.1592 146.847 32.5245C149.975 36.7061 152.506 41.22 154.904 45.8697C157.947 51.7698 160.122 57.9057 161.632 64.323C163.186 70.931 164.023 80.8005 163.439 85.4674C161.039 85.4912 161.039 85.4912 160.243 84.2281C160.936 83.8822 161.624 83.5386 162.389 83.1566C160.767 82.4005 159.486 81.7798 158.179 81.2168C157.959 81.122 157.447 81.1957 157.387 81.3313C157.171 81.8215 157.034 82.3655 156.98 82.9007C156.941 83.2827 157.072 83.6848 157.144 84.0749C157.336 85.1195 156.259 86.3823 157.695 87.24C157.798 87.3018 157.645 87.7933 157.575 88.3953C157.197 87.7408 156.974 87.3546 156.613 86.8518C156.356 86.7343 156.238 86.7333 156.119 86.7323C155.456 85.9826 153.107 86.2312 152.674 87.0924C152.234 87.9664 151.784 88.8356 151.243 89.8928C152.038 90.3553 153.044 90.9403 154.049 91.5252C155.453 92.2495 155.156 90.9062 155.273 90.4956C156.334 90.859 157.271 91.1689 158.2 91.5011C159.119 91.83 160.03 92.1815 161.126 92.5907C160.987 92.9972 160.791 93.455 160.676 93.9322C160.529 94.5426 159.486 95.186 160.795 95.8302C160.974 95.9187 160.558 97.2181 160.447 97.805C159.883 97.9806 159.418 98.1257 158.952 98.2708C159.246 98.721 159.45 99.3114 159.862 99.5793C160.227 99.8159 160.951 100.63 161.389 99.407C161.5 99.3876 161.49 99.3741 161.49 99.3741C161.26 100.85 161.03 102.326 160.755 104.092C159.24 103.435 158 102.897 156.604 102.291C156.183 103.218 155.625 104.446 154.928 105.98C156.593 107.588 157.019 104.302 158.494 104.514C158.433 105.325 158.37 106.167 158.302 107.071C157.352 107.345 156.405 107.618 155.207 107.963C156.241 108.553 157.504 108.853 156.885 110.305C156.875 110.33 157.45 110.604 157.859 110.721C157.966 110.681 157.959 110.658 157.959 110.658ZM69.761 48.1511C68.8083 45.6964 66.6653 44.3415 64.3987 44.7608C61.8032 45.2409 60.025 47.5301 60.2664 50.0806C60.5112 52.667 62.6749 54.5408 65.3306 54.4664C68.0364 54.3906 69.8847 52.3826 70.2819 49.4457C72.1384 49.5811 73.9936 49.7747 75.852 49.8125C76.3375 49.8223 76.8328 49.3478 77.3235 49.0957C76.8738 48.7835 76.4278 48.2102 75.9737 48.2038C73.906 48.1743 71.836 48.3042 69.761 48.1511ZM67.1237 94.7226C72.5032 89.0746 77.8887 83.4324 83.2533 77.7703C83.8364 77.1548 84.2906 76.8726 85.2652 77.1161C88.2823 77.8702 90.6381 75.3943 90.1042 72.316C90.0039 71.7381 90.2876 70.8841 90.7039 70.4658C91.8894 69.2744 93.2093 68.2104 94.5215 67.1524C101.999 61.1242 110.412 57.4542 120.128 57.3025C126.792 57.1984 132.904 58.9312 137.694 63.8091C139.324 65.4683 140.411 67.6532 141.812 69.5494C142.098 69.9361 142.678 70.1052 143.122 70.3746C143.241 69.8415 143.479 69.2997 143.441 68.7781C143.408 68.3409 143.071 67.9179 142.839 67.5047C139.566 61.6608 134.593 58.009 128.16 56.3816C119.315 54.1438 110.921 55.8284 102.832 59.6163C97.867 61.9415 93.5933 65.271 89.5402 68.9192C89.0807 69.3328 88.2369 69.6924 87.6844 69.5693C84.1414 68.7799 81.7312 71.0969 82.4518 74.6443C82.5535 75.1452 82.3158 75.7926 82.0503 76.2692C81.7773 76.7592 81.2811 77.1264 80.877 77.5418C74.8158 83.773 68.9299 90.1881 62.6433 96.183C56.0849 102.437 48.4023 106.769 39.2115 108.049C28.0057 109.609 19.0004 103.716 16.3392 92.7114C15.6283 89.7718 15.5955 86.6722 15.1511 83.6607C15.07 83.1111 14.5041 82.633 14.162 82.1219C13.8424 82.6988 13.1951 83.3136 13.2567 83.8465C13.648 87.2342 13.8845 90.6861 14.7498 93.9643C17.4771 104.297 25.6258 110.312 36.3061 110.147C42.0044 110.059 47.2829 108.349 52.3223 105.806C57.8409 103.021 62.4999 99.0797 67.1237 94.7226ZM60.2682 75.1225C58.6103 76.8534 56.9524 78.5843 55.1618 80.4538C53.4628 75.9561 50.6568 73.3468 46.1478 73.1598C42.1554 72.9941 39.063 74.7995 37.301 78.3874C35.0431 82.9849 36.3969 86.9531 40.0456 90.4005C37.4283 91.6778 34.9572 92.9699 31.7002 93.4647C32.2093 92.5583 32.4149 92.0166 32.7673 91.5989C33.7165 90.4738 34.7772 89.4399 35.6867 88.2857C35.9726 87.9229 35.9195 87.2929 36.0216 86.7853C35.5104 86.8186 34.7792 86.6467 34.5246 86.9195C33.13 88.4138 31.6692 89.901 30.5819 91.6133C29.2865 93.6534 30.3586 95.378 32.7196 94.8995C35.3596 94.3645 37.9134 93.3017 40.4218 92.2676C41.5326 91.8097 42.4536 91.5514 43.6774 91.8583C48.9411 93.1782 54.3895 89.5628 55.1097 84.2203C55.2905 82.8797 55.8898 82.1117 56.7879 81.2301C58.693 79.3599 60.5301 77.3923 62.1516 75.2779C62.6628 74.6112 62.8163 73.0373 62.3743 72.4466C61.9121 71.8287 60.4767 71.568 59.5726 71.7327C57.9396 72.0301 56.3742 72.7303 54.8036 73.3234C54.112 73.5846 53.0339 73.8047 53.5548 74.847C53.7091 75.1558 54.9068 75.136 55.5485 74.9684C56.9152 74.6115 58.2232 74.0358 59.5718 73.6009C59.9794 73.4694 60.4413 73.5064 61.1568 73.4406C60.8248 74.1216 60.6252 74.531 60.2682 75.1225ZM99.5567 102.335C100.413 103.996 101.495 105.584 102.065 107.339C102.739 109.411 101.763 110.669 99.6011 110.992C98.8882 111.098 98.1125 111.073 97.4108 110.912C95.3624 110.44 93.3417 109.849 91.3014 109.34C86.3477 108.103 81.9936 108.906 78.6575 113.112C78.1386 113.766 76.9503 114.415 77.9978 115.285C78.9918 116.111 79.5889 114.893 80.0996 114.268C82.7193 111.066 86.0373 110.081 89.9884 111.019C91.5734 111.396 93.1195 111.989 94.7214 112.229C96.6678 112.52 98.6947 112.853 100.614 112.604C103.151 112.275 104.6 110.116 104.038 107.64C103.617 105.786 102.843 103.936 101.855 102.308C100.784 100.542 99.2838 99.0348 97.9707 97.4146C97.7006 97.7791 97.9847 97.728 98.2707 97.7135C102.219 97.5142 105.681 98.889 108.572 101.418C111.418 103.908 114.072 106.635 116.652 109.405C118.852 111.765 121.496 112.886 124.636 112.921C125.12 112.926 125.609 112.396 126.096 112.114C125.626 111.767 125.169 111.143 124.683 111.119C121.831 110.984 119.578 109.862 117.658 107.718C115.484 105.289 113.18 102.957 110.766 100.766C106.197 96.6188 100.856 94.8946 94.715 96.2638C94.0698 96.4076 93.5094 96.9319 92.9097 97.2796C93.3968 97.7506 93.8361 98.2877 94.3798 98.6803C96.0326 99.8734 97.7256 101.011 99.5567 102.335ZM149.65 83.2311C149.872 82.749 150.095 82.2668 150.317 81.7847C149.818 81.5684 149.325 81.1833 148.819 81.1654C146.797 81.0935 144.77 81.1357 142.536 81.1357C144.184 79.2536 145.812 77.4921 147.302 75.6204C147.647 75.1863 147.52 74.3761 147.61 73.7391C147.046 73.9577 146.313 74.0213 145.946 74.4208C143.953 76.5869 142.026 78.8166 140.136 81.0738C139.781 81.4982 139.693 82.1466 139.481 82.6916C140.05 82.8671 140.615 83.1721 141.19 83.1938C142.947 83.2604 144.708 83.218 146.468 83.218C146.273 83.8534 145.883 84.1737 145.51 84.5131C143.331 86.4949 141.148 88.4724 138.986 90.472C138.434 90.9826 137.516 91.5664 138.361 92.3517C138.618 92.5907 139.796 92.2043 140.27 91.7853C143.384 89.035 146.421 86.1972 149.65 83.2311ZM13.7657 68.7475C15.5897 71.4014 18.3493 72.2354 20.8366 70.8846C23.2986 69.5475 24.3347 66.6279 23.2387 64.1159C22.0618 61.4184 18.944 60.1931 16.2455 61.3676C13.5229 62.5525 12.4505 65.5228 13.7657 68.7475ZM142.071 99.6704C141.363 100.9 140.747 102.197 139.926 103.346C138.28 105.65 136.25 107.518 133.541 108.581C133.128 108.743 132.931 109.456 132.635 109.915C133.178 110.028 133.717 110.184 134.265 110.235C134.498 110.257 134.758 110.072 134.995 109.96C139.216 107.962 141.94 104.543 143.735 100.38C144.427 98.7742 144.663 96.9551 144.959 95.2082C145.019 94.8585 144.412 94.3956 144.112 93.9849C143.79 94.3773 143.308 94.7226 143.177 95.1707C142.767 96.574 142.491 98.016 142.071 99.6704ZM76.8986 59.8361C75.0601 57.956 73.2368 56.0605 71.3703 54.2086C70.9974 53.8387 70.4596 53.6349 69.9978 53.3546C69.896 53.4748 69.7941 53.595 69.6922 53.7153C69.8298 54.0228 69.895 54.4013 70.1162 54.6268C72.2161 56.7675 74.3333 58.8915 76.4753 60.9899C76.6878 61.1981 77.0979 61.2045 77.4164 61.3046C77.2969 60.8705 77.1775 60.4365 76.8986 59.8361ZM35.4293 49.3527C33.8543 49.7709 33.0385 50.702 33.6072 51.7908C33.9661 52.4778 34.938 53.2231 35.6453 53.2335C36.2418 53.2422 37.1914 52.3257 37.3842 51.648C37.7295 50.4339 37.0018 49.5686 35.4293 49.3527ZM64.1313 57.5805C64.1147 58.5737 64.0069 59.5777 64.1222 60.5553C64.1752 61.0047 64.6657 61.4025 64.9578 61.8237C65.2557 61.407 65.7589 61.0141 65.8107 60.5687C65.9368 59.4849 65.9395 58.3672 65.8191 57.2823C65.756 56.7134 65.3291 56.1849 65.0664 55.6381C64.7548 56.1931 64.4431 56.7481 64.1313 57.5805ZM57.4868 50.0337C57.7503 50.0335 58.052 50.1163 58.2693 50.016C58.7324 49.8023 59.1517 49.4936 59.5889 49.2238C59.1499 48.9628 58.7241 48.5064 58.2697 48.476C56.6953 48.3706 55.1084 48.3601 53.5323 48.4368C53.1376 48.456 52.7653 48.9367 52.3827 49.2053C52.7728 49.4675 53.1451 49.9175 53.5563 49.9564C54.7586 50.0701 55.9764 50.0198 57.4868 50.0337ZM63.9953 39.156C63.9955 40.3056 63.9313 41.4608 64.031 42.6016C64.0658 42.9988 64.506 43.3605 64.7611 43.7383C65.0365 43.3729 65.5143 43.0263 65.5501 42.6388C65.6649 41.3943 65.689 40.13 65.6053 38.8829C65.5502 38.0607 66.1947 36.8226 64.7363 36.6662C64.5732 36.6487 64.2534 38.0912 63.9953 39.156ZM90.4564 114.271C90.8304 114.114 91.2045 113.957 91.5785 113.801C91.3867 113.589 91.2274 113.242 90.9982 113.188C88.376 112.562 85.8065 112.473 83.5519 114.285C83.2934 114.492 83.2428 114.959 83.0957 115.305C83.4666 115.281 83.9322 115.393 84.1933 115.211C86.0461 113.92 88.0467 113.709 90.4564 114.271ZM111.628 98.1112C111.516 97.6893 111.542 97.0692 111.269 96.8789C109.9 95.9255 108.468 95.0588 107.023 94.2231C106.675 94.0219 106.191 94.0548 105.77 93.98C105.678 94.16 105.586 94.34 105.494 94.5201C107.46 95.7389 109.426 96.9578 111.628 98.1112ZM56.046 39.6448C56.0009 40.0175 55.7746 40.5567 55.9396 40.7363C57.1447 42.0472 58.4129 43.3022 59.7039 44.5301C59.8996 44.7163 60.3163 44.6702 60.6308 44.7316C60.5965 44.4182 60.6824 43.9872 60.509 43.81C59.1226 42.3926 57.6871 41.0232 56.046 39.6448ZM72.7385 41.4546C72.8906 41.3107 73.1031 41.194 73.1826 41.0175C73.3705 40.5999 73.4952 40.1539 73.6454 39.7194C73.2028 39.8647 72.6588 39.8944 72.3368 40.177C71.3946 41.0041 70.5086 41.9031 69.6718 42.8376C69.4178 43.1212 69.3954 43.612 69.2669 44.0079C69.6619 43.9082 70.153 43.9226 70.4337 43.6867C71.1924 43.0491 71.8617 42.305 72.7385 41.4546ZM58.1823 56.346C58.5913 55.9369 59.0496 55.5645 59.3913 55.1053C59.6031 54.8206 59.6379 54.4041 59.7521 54.0468C59.3457 54.1275 58.8645 54.0986 58.5498 54.3136C58.037 54.664 57.5595 55.1217 57.2014 55.6289C56.7474 56.272 56.4277 57.0099 56.05 57.7069C56.7075 57.3065 57.365 56.9061 58.1823 56.346ZM102.703 94.0442C102.96 93.8619 103.218 93.6796 103.475 93.4974C103.265 93.2967 103.075 92.9569 102.84 92.9227C102.247 92.8361 101.633 92.8667 101.031 92.9069C100.95 92.9124 100.889 93.242 100.819 93.4216C101.361 93.6217 101.904 93.8218 102.703 94.0442Z" fill="#2054DD"/>
<path d="M156.021 86.7843C156.237 86.7333 156.356 86.7343 156.533 86.7339C155.848 87.6009 155.105 88.4693 154.362 89.3376C153.974 87.7695 154.92 87.2802 156.021 86.7843Z" fill="#2054DD"/>
<path d="M161.504 99.3936C161.529 99.3311 161.549 99.2625 161.568 99.1938C161.592 99.2777 161.615 99.3616 161.563 99.4098C161.488 99.3741 161.498 99.3876 161.504 99.3936Z" fill="#2054DD"/>
<path d="M157.973 110.692C158.065 110.69 158.154 110.677 158.242 110.663C158.172 110.717 158.102 110.771 157.996 110.741C157.961 110.658 157.968 110.681 157.973 110.692Z" fill="#2054DD"/>
<path d="M67.0402 94.795C62.5013 99.0796 57.8422 103.021 52.3236 105.806C47.2843 108.349 42.0057 110.059 36.3075 110.147C25.6271 110.312 17.4784 104.297 14.7511 93.9642C13.8858 90.686 13.6494 87.2342 13.258 83.8464C13.1964 83.3135 13.8438 82.6988 14.1633 82.1219C14.5054 82.633 15.0714 83.1111 15.1525 83.6607C15.5968 86.6721 15.6297 89.7718 16.3406 92.7114C19.0018 103.716 28.007 109.609 39.2128 108.049C48.4036 106.769 56.0862 102.437 62.6446 96.1829C68.9312 90.1881 74.8171 83.773 80.8783 77.5418C81.2825 77.1263 81.7787 76.7592 82.0517 76.2691C82.3172 75.7925 82.5549 75.1452 82.4531 74.6442C81.7325 71.0969 84.1427 68.7799 87.6858 69.5693C88.2383 69.6924 89.082 69.3328 89.5415 68.9192C93.5946 65.2709 97.8684 61.9414 102.834 59.6162C110.922 55.8284 119.317 54.1437 128.162 56.3816C134.594 58.009 139.568 61.6608 142.841 67.5047C143.072 67.9178 143.41 68.3409 143.442 68.7781C143.48 69.2996 143.242 69.8415 143.123 70.3746C142.679 70.1051 142.099 69.936 141.813 69.5494C140.412 67.6532 139.325 65.4682 137.696 63.8091C132.905 58.9312 126.794 57.1984 120.13 57.3025C110.414 57.4542 102 61.1242 94.5229 67.1524C93.2106 68.2104 91.8907 69.2744 90.7052 70.4658C90.2889 70.8841 90.0053 71.7381 90.1055 72.316C90.6394 75.3943 88.2837 77.8702 85.2665 77.1161C84.2919 76.8725 83.8378 77.1547 83.2546 77.7703C77.8901 83.4324 72.5045 89.0746 67.0402 94.795ZM85.3282 75.1952C87.3429 75.5613 88.849 74.4231 88.2252 72.8873C87.9474 72.2032 87.0891 71.49 86.375 71.3333C85.8201 71.2115 84.8214 71.7695 84.4801 72.3139C83.8841 73.2648 84.0922 74.3261 85.3282 75.1952Z" fill="white"/>
<path d="M60.3483 75.0314C60.6266 74.531 60.8262 74.1215 61.1582 73.4405C60.4428 73.5063 59.9809 73.4694 59.5733 73.6008C58.2247 74.0357 56.9166 74.6114 55.55 74.9683C54.9083 75.1359 53.7106 75.1557 53.5563 74.847C53.0353 73.8046 54.1135 73.5845 54.805 73.3234C56.3756 72.7303 57.9411 72.03 59.5741 71.7326C60.4782 71.568 61.9135 71.8287 62.3758 72.4465C62.8178 73.0373 62.6643 74.6112 62.153 75.2779C60.5316 77.3923 58.6944 79.3599 56.7893 81.23C55.8913 82.1116 55.2919 82.8797 55.1112 84.2203C54.3909 89.5628 48.9426 93.1782 43.6788 91.8582C42.455 91.5514 41.5341 91.8096 40.4233 92.2676C37.9148 93.3017 35.361 94.3645 32.7211 94.8995C30.3601 95.378 29.288 93.6533 30.5834 91.6133C31.6707 89.901 33.1315 88.4138 34.5261 86.9194C34.7807 86.6466 35.5119 86.8186 36.0231 86.7852C35.921 87.2929 35.9741 87.9228 35.6882 88.2856C34.7786 89.4399 33.718 90.4737 32.7688 91.5988C32.4164 92.0166 32.2108 92.5582 31.7016 93.4647C34.9587 92.9698 37.4298 91.6778 40.0471 90.4004C36.3983 86.953 35.0446 82.9848 37.3025 78.3873C39.0645 74.7994 42.1569 72.9941 46.1493 73.1597C50.6582 73.3468 53.4642 75.9561 55.1633 80.4537C56.9539 78.5842 58.6118 76.8533 60.3483 75.0314ZM52.7604 84.5583C50.0807 86.3846 47.4009 88.2108 44.6842 90.0623C48.6765 90.759 52.6453 88.0656 53.0621 84.5162C53.0339 84.5209 53.0056 84.5256 52.7604 84.5583ZM42.4946 89.0582C45.7791 86.866 49.0493 84.6521 52.357 82.4956C53.2937 81.8849 53.368 81.2312 53.0167 80.2371C51.9249 77.147 49.2125 75.0816 46.0016 75.0184C42.6603 74.9527 39.8003 76.8693 38.6293 79.9588C37.2446 83.6125 39.0295 88.0965 42.4946 89.0582Z" fill="white"/>
<path d="M99.4782 102.252C97.724 101.011 96.031 99.8734 94.3782 98.6803C93.8345 98.2878 93.3952 97.7507 92.9081 97.2797C93.5078 96.9319 94.0682 96.4077 94.7134 96.2638C100.855 94.8946 106.195 96.6188 110.765 100.766C113.179 102.957 115.482 105.289 117.657 107.718C119.577 109.862 121.829 110.984 124.682 111.119C125.167 111.143 125.624 111.768 126.094 112.114C125.607 112.396 125.118 112.926 124.634 112.921C121.495 112.886 118.85 111.766 116.651 109.405C114.07 106.635 111.416 103.908 108.57 101.418C105.68 98.8891 102.217 97.5143 98.2691 97.7135C97.9831 97.728 97.699 97.7791 97.9691 97.4147C99.2822 99.0348 100.782 100.542 101.854 102.308C102.841 103.936 103.616 105.786 104.036 107.64C104.599 110.116 103.15 112.275 100.612 112.604C98.6932 112.853 96.6662 112.52 94.7198 112.229C93.1179 111.989 91.5719 111.396 89.9868 111.019C86.0357 110.081 82.7177 111.066 80.098 114.268C79.5873 114.893 78.9902 116.111 77.9962 115.285C76.9487 114.415 78.137 113.766 78.6559 113.112C81.992 108.906 86.3462 108.103 91.2999 109.34C93.3401 109.849 95.3608 110.44 97.4093 110.912C98.1109 111.073 98.8866 111.098 99.5995 110.992C101.761 110.669 102.738 109.411 102.064 107.339C101.493 105.584 100.411 103.996 99.4782 102.252Z" fill="white"/>
<path d="M149.567 83.3096C146.421 86.1972 143.385 89.0349 140.271 91.7853C139.797 92.2043 138.619 92.5907 138.362 92.3517C137.517 91.5664 138.434 90.9826 138.986 90.472C141.149 88.4724 143.331 86.4949 145.51 84.5131C145.883 84.1736 146.274 83.8534 146.469 83.218C144.709 83.218 142.948 83.2603 141.19 83.1938C140.615 83.172 140.051 82.8671 139.482 82.6916C139.693 82.1466 139.781 81.4982 140.137 81.0738C142.027 78.8166 143.953 76.5869 145.946 74.4208C146.314 74.0212 147.047 73.9577 147.611 73.739C147.521 74.3761 147.648 75.1863 147.303 75.6203C145.813 77.4921 144.185 79.2536 142.537 81.1357C144.771 81.1357 146.798 81.0935 148.82 81.1653C149.326 81.1833 149.819 81.5683 150.318 81.7847C150.095 82.2668 149.873 82.749 149.567 83.3096Z" fill="white"/>
<path d="M13.7136 68.6393C12.4516 65.5229 13.5239 62.5526 16.2466 61.3676C18.9451 60.1932 22.0629 61.4185 23.2398 64.116C24.3357 66.628 23.2996 69.5475 20.8377 70.8846C18.3504 72.2354 15.5908 71.4014 13.7136 68.6393ZM15.9195 68.5492C17.7919 70.0551 19.7325 69.9696 21.0548 68.323C22.2047 66.8909 21.9365 64.7007 20.4661 63.5172C19.273 62.5569 17.4217 62.5715 16.2327 63.5506C14.7802 64.7466 14.6106 66.4466 15.9195 68.5492Z" fill="white"/>
<path d="M70.0145 49.3755C69.8824 52.3828 68.0341 54.3907 65.3283 54.4665C62.6726 54.5409 60.5089 52.6671 60.2641 50.0807C60.0227 47.5302 61.8009 45.241 64.3964 44.7609C66.663 44.3416 68.806 45.6965 69.7521 48.3744C69.8352 48.8569 69.9248 49.1162 70.0145 49.3755ZM62.949 47.5319C61.7734 49.4046 61.8892 50.9041 63.2929 51.9859C64.5578 52.9607 66.3409 52.7873 67.4032 51.5862C68.3842 50.477 68.4113 48.8751 67.4689 47.6939C66.4287 46.3899 64.9298 46.2746 62.949 47.5319Z" fill="white"/>
<path d="M142.115 99.5567C142.489 98.016 142.766 96.5739 143.175 95.1706C143.306 94.7226 143.788 94.3772 144.11 93.9849C144.41 94.3955 145.017 94.8585 144.958 95.2081C144.661 96.9551 144.425 98.7741 143.733 100.38C141.938 104.542 139.214 107.962 134.993 109.96C134.756 110.072 134.496 110.257 134.263 110.235C133.715 110.184 133.176 110.028 132.633 109.914C132.93 109.456 133.126 108.743 133.54 108.581C136.248 107.518 138.278 105.65 139.925 103.346C140.746 102.196 141.361 100.9 142.115 99.5567Z" fill="white"/>
<path d="M76.9775 59.9192C77.1767 60.4364 77.2961 60.8705 77.4156 61.3045C77.0971 61.2045 76.687 61.198 76.4745 60.9898C74.3325 58.8914 72.2153 56.7674 70.1154 54.6268C69.8942 54.4013 69.829 54.0228 69.6914 53.7152C69.7933 53.595 69.8952 53.4747 69.997 53.3545C70.4588 53.6349 70.9966 53.8386 71.3695 54.2086C73.236 56.0605 75.0593 57.9559 76.9775 59.9192Z" fill="white"/>
<path d="M35.5543 49.3542C37.0001 49.5685 37.7278 50.4339 37.3825 51.6479C37.1898 52.3257 36.2402 53.2422 35.6437 53.2334C34.9363 53.223 33.9645 52.4778 33.6056 51.7907C33.0368 50.702 33.8526 49.7708 35.5543 49.3542Z" fill="white"/>
<path d="M70.1498 49.4107C69.9276 49.1162 69.8379 48.8569 69.7578 48.4873C71.8365 48.3043 73.9064 48.1744 75.9741 48.2039C76.4282 48.2104 76.8742 48.7836 77.324 49.0958C76.8332 49.3479 76.3379 49.8225 75.8525 49.8126C73.9941 49.7748 72.1388 49.5813 70.1498 49.4107Z" fill="white"/>
<path d="M64.132 57.4418C64.4438 56.7482 64.7555 56.1932 65.0671 55.6382C65.3297 56.1849 65.7566 56.7135 65.8198 57.2824C65.9402 58.3673 65.9374 59.485 65.8114 60.5688C65.7596 61.0142 65.2564 61.407 64.9585 61.8237C64.6664 61.4026 64.1759 61.0048 64.1229 60.5554C64.0076 59.5777 64.1154 58.5738 64.132 57.4418Z" fill="white"/>
<path d="M57.3375 50.0336C55.9764 50.0196 54.7587 50.0699 53.5564 49.9563C53.1452 49.9174 52.7729 49.4674 52.3828 49.2052C52.7654 48.9366 53.1376 48.4559 53.5324 48.4367C55.1085 48.36 56.6954 48.3704 58.2697 48.4759C58.7241 48.5063 59.15 48.9626 59.589 49.2237C59.1518 49.4935 58.7325 49.8022 58.2694 50.0159C58.0521 50.1162 57.7504 50.0334 57.3375 50.0336Z" fill="white"/>
<path d="M64.0018 39.0063C64.2544 38.0912 64.5741 36.6487 64.7373 36.6662C66.1957 36.8226 65.5511 38.0607 65.6063 38.8828C65.69 40.1299 65.6659 41.3943 65.551 42.6387C65.5153 43.0262 65.0375 43.3729 64.7621 43.7383C64.507 43.3604 64.0668 42.9987 64.032 42.6016C63.9322 41.4608 63.9965 40.3056 64.0018 39.0063Z" fill="white"/>
<path d="M90.3165 114.255C88.0447 113.709 86.0441 113.92 84.1913 115.211C83.9302 115.392 83.4647 115.281 83.0938 115.305C83.2408 114.959 83.2915 114.492 83.5499 114.285C85.8045 112.472 88.374 112.562 90.9962 113.187C91.2254 113.242 91.3847 113.589 91.5765 113.801C91.2025 113.957 90.8284 114.114 90.3165 114.255Z" fill="white"/>
<path d="M111.507 98.1439C109.423 96.9577 107.458 95.7389 105.492 94.52C105.584 94.34 105.676 94.16 105.768 93.98C106.189 94.0547 106.673 94.0219 107.02 94.2231C108.466 95.0587 109.898 95.9255 111.266 96.8789C111.54 97.0692 111.513 97.6893 111.507 98.1439Z" fill="white"/>
<path d="M56.1571 39.6421C57.6879 41.0233 59.1234 42.3927 60.5098 43.8101C60.6832 43.9874 60.5973 44.4183 60.6316 44.7317C60.3171 44.6704 59.9005 44.7164 59.7047 44.5302C58.4138 43.3024 57.1456 42.0474 55.9404 40.7364C55.7754 40.5569 56.0017 40.0176 56.1571 39.6421Z" fill="white"/>
<path d="M72.6513 41.529C71.8604 42.3051 71.1912 43.0491 70.4324 43.6868C70.1517 43.9226 69.6607 43.9082 69.2656 44.008C69.3941 43.6121 69.4166 43.1212 69.6705 42.8377C70.5074 41.9031 71.3933 41.0041 72.3356 40.1771C72.6576 39.8945 73.2016 39.8648 73.6442 39.7195C73.4939 40.154 73.3692 40.6 73.1813 41.0176C73.1019 41.1941 72.8893 41.3108 72.6513 41.529Z" fill="white"/>
<path d="M58.1031 56.4259C57.3657 56.9061 56.7083 57.3065 56.0508 57.7069C56.4284 57.0099 56.7481 56.2721 57.2021 55.629C57.5602 55.1217 58.0377 54.664 58.5505 54.3136C58.8652 54.0987 59.3464 54.1275 59.7528 54.0469C59.6386 54.4042 59.6039 54.8207 59.392 55.1054C59.0504 55.5646 58.592 55.937 58.1031 56.4259Z" fill="white"/>
<path d="M102.575 94.0332C101.905 93.8219 101.362 93.6218 100.82 93.4217C100.89 93.2421 100.951 92.9125 101.032 92.907C101.634 92.8668 102.248 92.8362 102.841 92.9228C103.076 92.957 103.266 93.2968 103.476 93.4975C103.219 93.6798 102.961 93.862 102.575 94.0332Z" fill="white"/>
<path d="M32.7239 17.7495C32.8419 17.7663 32.9067 17.8365 32.9715 17.9068C32.881 17.9377 32.7905 17.9687 32.6346 17.957C32.5691 17.9142 32.6707 17.8029 32.7239 17.7495Z" fill="white"/>
<path d="M85.2175 75.1262C84.0901 74.3262 83.882 73.2649 84.478 72.3139C84.8192 71.7696 85.818 71.2115 86.3729 71.3333C87.087 71.49 87.9453 72.2033 88.2231 72.8873C88.8469 74.4231 87.3408 75.5613 85.2175 75.1262Z" fill="#2054DD"/>
<path d="M42.395 89.1164C39.0283 88.0966 37.2433 83.6126 38.628 79.9589C39.799 76.8694 42.659 74.9528 46.0003 75.0185C49.2113 75.0817 51.9236 77.1471 53.0155 80.2372C53.3667 81.2313 53.2924 81.885 52.3558 82.4956C49.0481 84.6522 45.7778 86.8661 42.395 89.1164Z" fill="#2054DD"/>
<path d="M52.9533 84.5034C52.6447 88.0657 48.6759 90.759 44.6836 90.0624C47.4003 88.2109 50.0801 86.3847 52.8628 84.5373C52.9658 84.5163 52.9533 84.5034 52.9533 84.5034Z" fill="#2054DD"/>
<path d="M52.9702 84.5236C53.0045 84.526 53.0332 84.5212 53.0069 84.5098C52.9519 84.5033 52.9646 84.5164 52.9702 84.5236Z" fill="#2054DD"/>
<path d="M15.8363 68.4599C14.6113 66.4465 14.7809 64.7465 16.2334 63.5505C17.4224 62.5714 19.2737 62.5568 20.4668 63.5171C21.9372 64.7005 22.2054 66.8907 21.0554 68.3229C19.7332 69.9694 17.7926 70.0549 15.8363 68.4599Z" fill="#2054DD"/>
<path d="M63.0401 47.4455C64.9342 46.2744 66.4331 46.3898 67.4733 47.6937C68.4157 48.875 68.3886 50.4768 67.4076 51.5861C66.3453 52.7871 64.5622 52.9605 63.2973 51.9857C61.8936 50.9039 61.7778 49.4044 63.0401 47.4455Z" fill="#2054DD"/>
</svg>
